<svg xmlns="http://www.w3.org/2000/svg" viewBox="0 0 256 137.7"><title>Asset 1</title><polygon points="31.1 134.26 31.05 133.84 31.37 133.79 31.35 134.19 31.1 134.26"/><polygon points="31.94 133.88 31.89 133.75 32.19 133.28 32.38 133.71 31.94 133.88"/><polygon points="22.7 127.3 24.26 130.01 25.04 130.58 23.96 130.26 22.7 127.3"/><polygon points="20.91 124.89 21.31 125.2 21.44 125.66 21.2 125.55 20.91 124.89"/><polygon points="34.16 131.09 33.82 130.65 34.16 130.37 34.4 130.64 34.16 131.09"/><polygon points="45.35 134.53 45.65 135.09 45.13 135.37 45.07 134.32 45.75 134.51 45.35 134.53"/><polygon points="46.45 134.83 46.73 134.87 46.95 135.31 46.14 135.31 46.45 134.83"/><polygon points="47.03 134.66 47.27 134.69 47.21 135.06 46.6 134.58 47.03 134.66"/><polygon points="38.59 131.96 39.62 132.3 37.55 133.68 36.98 131.15 38.59 131.96"/><polygon points="41.51 134.04 38.89 133.72 38.82 133.3 41.87 132.48 41.51 134.04"/><polygon points="48.66 134.55 48.84 134.73 48.37 134.74 48.59 134.52 48.66 134.55"/><polygon points="44.73 133.3 44.77 135.12 41.9 135.32 43.7 133.07 44.73 133.3"/><polygon points="47.95 134.14 48.25 134.3 47.88 134.32 47.55 134.17 47.95 134.14"/><polygon points="22.47 125.03 22.27 124.53 22.69 124.3 22.93 124.75 22.47 125.03"/><polygon points="27.46 127.33 26.8 126.73 27.78 126.14 28.22 126.89 27.46 127.33"/><polygon points="47.49 133.67 47.1 134.1 46.66 133.16 47.35 133 47.49 133.67"/><polygon points="18.51 122.47 16.87 123.11 16.65 122.44 19.14 121.55 18.51 122.47"/><polygon points="58.81 136.36 59.77 137.15 61.61 137.7 58.99 137.47 56.59 135.9 58.81 136.36"/><polygon points="12.66 116.67 12.39 116.5 12.42 116.26 12.82 116.63 12.66 116.67"/><polygon points="64.68 136.92 63.93 137.07 63.48 136.85 64.66 136.08 64.68 136.92"/><polygon points="56.93 133.77 56.39 135.93 53.32 135.74 50.45 134.81 56.93 133.77"/><polygon points="3.93 110.88 3.22 111.74 1.88 110.65 3.23 110.52 3.93 110.88"/><polygon points="70.41 137.15 70 137.03 70.39 136.61 70.55 136.9 70.41 137.15"/><polygon points="73.59 136.78 72.53 137.08 72.36 136.97 73.43 136.03 73.59 136.78"/><polygon points="6.3 110.19 6.32 110.33 5.93 110.03 6.16 109.94 6.3 110.19"/><polygon points="75.97 136.46 75.67 136.38 75.9 135.94 76.37 136.29 75.97 136.46"/><polygon points="77.87 135.6 77.93 136.56 76.72 135.98 76.93 135.66 77.87 135.6"/><polygon points="76.68 135.53 76.35 135.4 76.36 135.09 76.92 135.26 76.68 135.53"/><polygon points="2.05 105.47 3 106.08 3.65 107.77 0 105 2.05 105.47"/><polygon points="78.27 135.23 78.25 134.63 78.54 134.61 78.61 134.91 78.27 135.23"/><polygon points="87.16 132.31 87.58 133.87 82.59 136.53 80.84 136.85 87.16 132.31"/><polygon points="96.31 131.95 95.74 132.39 95.55 132.89 95.32 132.16 96.31 131.95"/><polygon points="96.36 131.08 96.01 130.95 96.06 130.76 96.5 130.93 96.36 131.08"/><polygon points="90.89 133.82 93.32 132.37 92.2 130.27 95.7 130.87 92.71 134.39 87.46 134.45 90.89 133.82"/><polygon points="100.41 130.84 100.18 131.07 99.36 130.66 99.87 130.64 100.41 130.84"/><polygon points="101.9 130.72 101.66 131.07 100.56 130.76 101.03 130.51 101.9 130.72"/><polygon points="97.73 129.6 98.51 130.34 96.79 130.52 96.81 129.39 97.73 129.6"/><polygon points="99.47 129.16 99.88 129.84 98.94 130.32 98.72 129.19 99.47 129.16"/><polygon points="113.66 130.35 113.5 130.48 113.34 130.08 113.66 130.23 113.66 130.35"/><polygon points="112.75 129.73 112.61 130.36 111.86 129.24 112.02 129.27 112.75 129.73"/><polygon points="126.94 128.86 126.66 128.83 126.66 128.36 127.01 128.65 126.94 128.86"/><polygon points="245.79 113.47 246.35 113.51 246.69 114.48 245.78 113.95 245.79 113.47"/><polygon points="128.14 127.53 128.47 127.73 128.09 128.07 127.89 127.57 128.14 127.53"/><polygon points="114.68 126.85 114.05 126.18 114.88 125.8 114.97 126.35 114.68 126.85"/><polygon points="252 110.89 251.92 111.86 251.11 111.61 251.85 110.76 252 110.89"/><polygon points="108.32 124.34 109.33 124.62 109.79 126.79 110.73 126.97 111.03 127.85 102.77 128.6 104.63 125.14 108.32 124.34"/><polygon points="127.89 126.76 127.92 127.25 127.35 127.41 127.42 126.51 127.89 126.76"/><polygon points="117.41 124.76 117.77 125.12 117.14 125.52 116.62 124.71 117.41 124.76"/><polygon points="244.93 111.68 245.76 112.41 245.54 112.93 244.92 112.8 244.93 111.68"/><polygon points="119.13 124.48 119.2 124.79 119.13 124.94 118.73 124.62 119.13 124.48"/><polygon points="127.18 126.06 126.58 126.61 127.23 125.03 127.29 125.66 127.18 126.06"/><polygon points="243.76 111.97 243.88 112.69 246.66 115.18 243.95 113.79 243.76 111.97"/><polygon points="118.19 124.48 117.85 124.55 117.63 124.38 118.25 124.12 118.19 124.48"/><polygon points="251.15 109.97 250.43 111.25 249.91 109.13 250.85 109.41 251.15 109.97"/><polygon points="125.48 125.11 125.76 125.83 123.89 127.68 124.2 125.78 125.48 125.11"/><polygon points="242.49 111.28 242.92 111.95 242.19 112.34 241.88 111.51 242.49 111.28"/><polygon points="125.06 124.35 124.88 124.38 124.73 124.16 124.93 124.1 125.06 124.35"/><polygon points="123.75 123.93 123.66 124.73 122.86 124.05 123.07 123.86 123.75 123.93"/><polygon points="122.14 124.12 123.06 125.14 121.42 125.52 121.99 123.33 122.14 124.12"/><polygon points="248.43 108.51 249.49 109.09 249.54 110.39 248.99 110.1 248.43 108.51"/><polygon points="241.03 110.88 241.68 111.03 241.32 112.33 240.8 111.88 241.03 110.88"/><polygon points="111.43 122.08 111.19 121.98 111.45 121.79 111.49 121.94 111.43 122.08"/><polygon points="124.25 123.21 124.59 123.25 124.54 123.78 123.76 123.52 124.25 123.21"/><polygon points="241.34 110.74 240.85 110.75 241.07 110.06 241.56 110.29 241.34 110.74"/><polygon points="241.92 110.27 241.37 109.93 241.39 109.71 242.04 109.69 241.92 110.27"/><polygon points="240.43 110.11 240.69 110.74 240.01 111.01 240.1 110.13 240.43 110.11"/><polygon points="128.63 121.1 128.32 120.93 128.47 120.74 128.56 120.75 128.63 121.1"/><polygon points="240.04 108.02 240.09 107.85 241.26 107.75 240.51 108.83 240.04 108.02"/><polygon points="131.07 120.53 131.21 120.8 130.38 120.89 130.61 120.28 131.07 120.53"/><polygon points="241.27 107.18 241.47 107.12 241.54 107.84 241.02 107.5 241.27 107.18"/><polygon points="237.04 108.06 237.64 107.88 237.22 108.85 236.64 108.27 237.04 108.06"/><polygon points="145.02 121.69 144.21 121.43 144.92 120.68 145.04 120.8 145.02 121.69"/><polygon points="238.85 107.95 238.41 107.86 238.62 107.4 238.81 107.68 238.85 107.95"/><polygon points="249.59 103.7 251.52 105.52 251.65 109.26 249.78 106.12 249.95 108.92 248.3 108.14 249.59 103.7"/><polygon points="140.17 119.65 140.09 119.9 139.88 119.69 140.08 119.45 140.17 119.65"/><polygon points="240.03 105.16 240.75 106.27 239.07 107.43 239.17 105.68 240.03 105.16"/><polygon points="139.79 118.76 139.65 118.55 139.8 118.19 139.83 118.57 139.79 118.76"/><polygon points="243.7 103.68 245.53 103.78 245.81 105.16 242.98 104.56 243.66 102.41 243.7 103.68"/><polygon points="238.77 103.99 246.8 108.38 244.95 107.95 244.7 109.43 248.14 109.91 249.48 114.09 245.37 110.85 242.89 111.47 243.32 108.43 241.35 109.09 241.76 106.94 240.46 104.97 239 105.08 238.77 103.99"/><polygon points="135.31 117.25 135.05 117.11 135 117 135.38 116.96 135.31 117.25"/><polygon points="242.44 102.06 242.53 103.6 240.98 103.34 241.25 102.37 242.44 102.06"/><polygon points="244.67 102.05 245.94 102.78 245.64 103.63 243.41 101.36 244.67 102.05"/><polygon points="152.31 116.03 152 116.27 151.26 116.22 151.77 115.87 152.31 116.03"/><polygon points="138.7 115.36 138.99 115.77 137.52 115.75 137.85 115.31 138.7 115.36"/><polygon points="149.87 115.47 150.1 115.68 150.09 115.93 148.53 117.06 149.87 115.47"/><polygon points="151.5 115.47 151.03 116.24 150.41 116.14 150.65 115.53 151.5 115.47"/><polygon points="84.88 107.39 85.79 107.64 85.95 107.86 85.2 108.07 84.88 107.39"/><polygon points="240.57 99.72 242.49 100.74 241.69 101.86 240.97 101.77 240.57 99.72"/><polygon points="235.93 100.68 237.69 102.27 237.41 107.33 234.26 101.38 235.93 100.68"/><polygon points="236.34 98.82 239.91 98.91 240.67 101.27 238.59 100.11 240.27 102.64 238.21 103.25 236.34 98.82"/><polygon points="155.32 111 156.57 111.18 154.65 112.35 154.43 111.55 155.32 111"/><polygon points="84.38 102.4 83.52 103.14 83.16 102.53 84.56 102.23 84.38 102.4"/><polygon points="228.66 99.78 228.91 101.59 228.08 101.99 227.36 99.47 228.66 99.78"/><polygon points="152.57 108.86 152.35 108.67 152.41 108.14 152.56 108.28 152.57 108.86"/><polygon points="228.85 98.03 231.58 98.79 233.67 102.49 234.71 106.73 232.81 103.07 230.37 102.64 228.85 98.03"/><polygon points="158.38 104.77 158.78 105.14 158.61 105.38 158.04 105.08 158.38 104.77"/><polygon points="154.92 105.43 155.13 106.02 153.75 105.07 153.99 104.73 154.92 105.43"/><polygon points="156.97 105.07 156.6 104.97 156.59 104.78 157.1 104.66 156.97 105.07"/><polygon points="155.94 105.09 159.56 107.49 156.15 108.31 157.48 109.99 155.32 109.62 151.26 114.39 152.95 111.35 149.75 111.5 151.41 111.5 150.55 113.52 148.44 109.66 150.93 107.11 151.77 107.33 151.39 108.13 152.12 108.21 152.31 109.2 152.92 110.02 153.41 110.27 152.16 106.05 153.91 107.48 155.8 105.84 154.76 104.49 155.94 105.09"/><polygon points="223.94 94.81 223.83 95.04 223.96 95.75 223.83 96.2 223.02 94.64 223.94 94.81"/><polygon points="155.14 103.77 155.49 103.76 155.78 104.25 156.43 104.55 154.25 104.04 155.14 103.77"/><polygon points="160.7 103.05 160.49 102.92 160.76 102.34 160.9 102.5 160.7 103.05"/><polygon points="225.96 92.5 226.79 94.55 229.52 93.12 229.71 95.04 225.77 94.5 230.17 95.15 231 97.31 226.56 96.12 228.27 98.06 227.32 98.98 224.07 96.39 224.01 94.96 225.5 95.74 223.44 93.28 223.82 93.2 224.37 94.13 224.79 94.22 225.96 92.5"/><polygon points="156.79 102.27 156.34 102.12 156.25 101.88 156.59 101.89 156.79 102.27"/><polygon points="231.12 90.65 231.77 91.06 229.86 90.72 230.24 90.32 231.12 90.65"/><polygon points="228.79 90.51 232.17 91.21 235.04 95.03 231.81 91.86 235.28 96.87 233.04 100.38 233.42 97.13 228.79 90.51"/><polygon points="156.76 102.27 156.91 102.5 156.92 101.7 156.41 101.33 157.42 100.72 160.18 101.84 156.79 104.59 155.02 103.23 156.76 102.27"/><polygon points="158.03 100.73 157.28 100.23 158.47 99.49 158.51 100.16 158.03 100.73"/><polygon points="126.51 98.32 126.32 97.95 126.43 97.68 126.58 98.19 126.51 98.32"/><polygon points="125.89 97.98 125.83 97.89 126 97.52 126.07 97.68 125.89 97.98"/><polygon points="124.21 97.94 123.07 98.6 124.91 96.79 124.28 97.86 124.21 97.94"/><polygon points="158.79 96.97 159.25 97.01 158.44 97.32 158.56 96.88 158.79 96.97"/><polygon points="164.97 93.95 164.65 93.81 165.12 93.21 165.31 93.41 164.97 93.95"/><polygon points="154.21 94.07 153.74 94.14 153.64 93.86 154.24 93.52 154.21 94.07"/><polygon points="182.16 91.77 182.07 91.69 182.22 91.41 182.25 91.47 182.16 91.77"/><polygon points="166.49 92.81 166.45 93.02 165.95 93.21 166.06 92.86 166.49 92.81"/><polygon points="161.98 91.74 162.06 91.77 162 91.75 161.98 91.74"/><polygon points="188.63 87.72 189.03 86.71 189.84 86 189.19 86.77 188.63 87.72"/><polygon points="175.19 87.59 174.68 88.31 174.28 88.37 174.34 87.99 174.65 88.11 175.19 87.59"/><polygon points="175.29 88.16 175.04 88.19 175.8 87.18 175.7 87.73 175.29 88.16"/><polygon points="175.28 86.82 175.53 87.06 174.71 87.86 175.22 86.61 175.28 86.82"/><polygon points="157.45 87.99 157.17 87.68 157.19 87.44 157.4 87.6 157.45 87.99"/><polygon points="174.78 86.82 174.52 87.61 173.95 87.7 174.86 86.34 174.78 86.82"/><polygon points="177.06 85.86 176.96 85.61 177.48 85.25 177.51 85.47 177.06 85.86"/><polygon points="178.34 84.73 177.35 88.61 175.67 89.43 178.05 84.72 178.34 84.73"/><polygon points="174.92 85.44 174.47 85.55 174.86 84.82 175.02 84.91 174.92 85.44"/><polygon points="186 84.07 185.36 84.02 186 83.34 185.97 83.83 186 84.07"/><polygon points="105.52 81.59 107.1 85.12 104.46 86.45 100.14 81.94 105.52 81.59"/><polygon points="180.44 83.62 181.16 84 181.95 83.68 182.26 83.93 180.41 85.39 180.44 83.62"/><polygon points="176.03 83.8 176.35 84.67 175.85 86.44 175.34 85.53 176.03 83.8"/><polygon points="159.41 86.04 159.21 85.98 159.89 84.77 160.08 84.96 159.41 86.04"/><polygon points="81.43 75.94 82.47 76.87 80.97 76.25 79.95 74.09 81.43 75.94"/><polygon points="182.12 83.34 181.23 83.56 183.27 82.02 183.25 82.38 182.12 83.34"/><polygon points="80.02 73.64 79.87 73.35 80.09 73.15 80.11 73.22 80.02 73.64"/><polygon points="176.95 82.19 177.3 82.47 176.73 82.69 176.69 82.27 176.95 82.19"/><polygon points="174.92 82.13 175.28 82.38 174.97 82.65 174.64 82.19 174.92 82.13"/><polygon points="174.26 82.81 173.85 82.41 173.84 81.99 174.25 82.12 174.26 82.81"/><polygon points="177.81 80.44 177.84 80.85 177.15 80.75 177.47 80.48 177.81 80.44"/><polygon points="174.41 80.59 174.94 81.37 174.55 81.68 174.09 81.44 174.41 80.59"/><polygon points="166.04 79.66 165.85 79.67 166.18 79.28 166.21 79.38 166.04 79.66"/><polygon points="108.4 69.11 108.17 69.09 108.38 68.73 108.32 68.94 108.4 69.11"/><polygon points="114.64 62.06 114.52 62.07 114.5 61.96 114.63 61.93 114.64 62.06"/><polygon points="96.5 58.26 96.55 58.38 96.56 58.53 96.5 58.26"/><polygon points="96.5 58.26 96.39 58.04 96.22 57.59 96.38 57.9 96.5 58.26"/><polygon points="98.33 56.3 98.16 56.22 98.09 56.16 98.05 56.07 98.33 56.3"/><polygon points="95 55.98 95.17 56.52 94.07 54.99 94.73 55.56 95 55.98"/><polygon points="92.9 54.34 93.07 54.38 93.84 54.82 92.95 54.41 92.9 54.34"/><polygon points="93.19 53.07 93.25 53.1 93.24 53.1 93.19 53.07"/><polygon points="93.19 53.07 92.97 52.97 93.03 52.97 93.19 53.07"/><polygon points="122.86 58.68 122.86 59.28 121.66 58.9 121.99 58.57 122.86 58.68"/><polygon points="92.97 52.97 93.64 53.45 96 53.02 100.52 57.84 96.78 59.29 96.59 57.78 95.21 56.86 95.46 56.24 93.73 54.39 92.9 54.28 91.56 54.91 90.56 54.21 91.45 51.05 92.97 52.97"/><polygon points="105.68 45.16 105.54 45.08 105.67 44.95 105.78 45.02 105.68 45.16"/><polygon points="104.31 38.55 104.16 38.55 104.19 38.39 104.31 38.38 104.31 38.55"/><polygon points="107.66 39.35 107.72 39.2 108 39.12 107.91 39.2 107.66 39.35"/><polygon points="108.25 39.13 108 39.43 108.06 39.13 108.64 38.93 108.25 39.13"/><polygon points="109.87 38.43 109.78 38.43 111.24 37.67 110.68 38.03 109.87 38.43"/><polygon points="111.6 37.53 111.37 37.62 113.06 36.82 113.51 36.77 111.6 37.53"/><polygon points="113.72 36.68 113.74 36.55 114.03 36.47 114.01 36.51 113.72 36.68"/><polygon points="114.28 36.48 114.13 36.51 114.83 36.09 114.82 36.12 114.28 36.48"/><polygon points="115.95 35.63 115.56 35.82 115.23 35.92 115.27 35.82 115.95 35.63"/><polygon points="115.95 35.63 116.09 35.58 116.17 35.57 115.95 35.63"/><polygon points="116.17 35.57 116.44 35.5 116.31 35.56 116.17 35.57"/><polygon points="116.44 35.5 116.49 35.48 116.5 35.48 116.44 35.5"/><polygon points="116.5 35.48 118.37 34.96 118.41 35.01 118 35.21 116.5 35.48"/><polygon points="126.5 12.54 126.41 13.16 126.52 12.18 126.61 11.82 126.73 11.64 126.5 12.54"/><polygon points="186.38 9.91 185.78 9.55 184.85 9.27 185.94 9.57 186.38 9.91"/><polygon points="126.89 11.29 126.77 11.5 127.18 10.54 127.79 9.83 126.89 11.29"/><polygon points="128.12 9.54 127.9 9.74 128.47 8.9 128.71 8.73 128.12 9.54"/><polygon points="128.78 8.57 128.99 8.14 129.53 7.68 129.94 7.51 128.78 8.57"/><polygon points="130.75 6.96 131.63 7.28 130.88 7.05 130.48 7.25 130.75 6.96"/><polygon points="164.5 6.23 165.18 6.64 165.36 6.57 165.66 6.79 165.13 6.71 164.3 6.31 164.5 6.23"/><polygon points="161.98 91.74 160.58 91.17 160.15 90.44 161.77 82.92 165.47 80.32 170.71 81.5 166.63 79.4 169.52 76.52 166.9 78.68 164.68 77.87 157.97 86.49 157.21 87.09 156.07 86.44 155.4 86.53 156.85 89.51 154.86 91.64 154 90.52 150.81 95.57 154.82 97.84 150.47 103.89 141.14 109.66 141.02 112.32 132.74 116.15 131.72 117.39 133.99 117.81 132.53 119.52 132.41 118.06 131.72 117.93 131.4 119.81 127.59 120.06 127.03 122.45 126.25 120.25 119.57 123.48 120.32 122.14 118.3 121.3 116.14 125.14 114.1 125.3 113.49 123.18 113.53 125.85 110.95 124.1 111.33 125.71 109.82 126.48 110.26 124.16 117.77 119.07 120.68 118.4 121.98 120.9 122.18 119.57 124.46 120.66 124.29 116.73 131.03 112.49 132.02 113.55 133.7 109.34 137.55 108.19 137.01 103.34 138.95 102.94 137.29 101.33 139.96 98.53 140.73 95.28 134.8 99.23 133.81 96.17 135.12 96.11 135.68 97.23 135.78 96.97 135.26 95.93 133.72 94.74 132.15 100.68 126.55 95.01 120.36 98.34 118.79 97.35 121.02 96.47 121.64 94.11 120.3 94.27 119.87 92.68 121.41 91.04 119.22 84.47 121.87 81.6 118.32 84.62 118.73 86.79 114.3 87.74 108.41 81.12 110.64 78.16 111.5 79.18 112.95 79.71 112.1 81.43 116.15 80.47 114.31 79.39 115.32 78.39 114.03 79.29 110.88 78.03 109.91 78.14 111.5 76.93 109.42 75.75 110.04 75.44 110.44 74.29 110.75 74.34 111.24 73.86 111.71 73.87 112.39 73.16 110.27 74.33 108.69 76.63 107.55 70.58 109.47 70.6 111.97 65.83 113.82 66.85 113.28 63.46 115.48 62.45 115.57 60.76 117.77 61.19 117.23 62.94 123.09 59.28 126.88 60.08 128.58 57.75 126.45 53.01 129.23 50.79 128.1 48.93 122.23 52.91 121.33 50.31 121.01 52.22 111.19 49.24 110.98 46.71 109.69 44.84 109.56 44.21 109.64 43.84 112.5 44.01 108.57 42.12 106.56 39.71 108.57 39.65 113.15 36.95 115.57 37.6 114.98 36.14 119.94 34.77 121.61 35.01 121.9 35.32 119.72 37.96 121.18 39.08 129.38 39.77 129.06 37.81 126.94 38.27 125.82 32.79 127.97 36.99 132.32 37.8 132.35 35.91 128.47 36.43 128.78 32.9 125.94 32.53 126.45 31.42 126.41 31.24 122.22 31.11 121.53 27.01 114.71 20.05 117.2 16.32 124.77 15.75 130.68 7.21 129.94 8.41 136.1 5.64 135.41 7.68 136.29 8.75 137.79 6.24 135.73 5.26 141.73 3.99 145.53 0 147.82 2.25 146.13 3.77 146.64 5.03 149.03 2.06 151.25 4.96 156.24 4.3 156.96 6.41 155.49 6.61 159.29 7.89 163.85 6.51 176.45 9.42 180.88 7.66 187.51 10.12 201.66 81.42 208.91 79.63 208.96 81.76 217.48 89.25 219.73 86.68 220.65 86.36 220.8 82.62 224.61 80.89 234.66 88.3 245.38 99.81 253.87 100.97 256 109.45 253.82 111.66 254.32 107.08 252.5 109.6 253.78 107.56 249.97 102.18 246.51 107.73 245.93 103.23 247.45 102.52 247.71 102.07 242.38 100.52 240.21 97.44 236.95 97.77 237.03 96.92 237.91 96.64 238.57 96.01 238.57 95.72 235.33 94 235.63 93.8 238.21 94.72 238.34 94.55 235.21 92.3 237.03 92.19 235.17 92.19 234.97 93.39 234.13 90.67 232.84 91.75 232.91 88.02 232.15 90.88 230.47 90.17 229.4 90.27 224.72 82.75 228.4 91.74 226.32 90.33 224.87 91.57 224.3 87.48 222.53 86.89 222.92 89.11 219.02 87.54 219.18 89.5 221.25 88.77 224.07 91.04 222.22 93.61 207.28 86.53 208 82.78 209.42 85.82 210.51 83.66 207.73 82.38 205.24 85.73 200.61 85.2 201.22 84.5 200.52 83.15 199.65 84.75 189.66 85.87 186.7 84.12 187.47 80.76 184.94 83.91 182.72 83.33 183.3 82.7 183.71 81.57 181.36 82.11 182.05 80.82 179.81 81.86 181.8 80.52 179.31 80.16 180.75 78.34 176.96 80.66 176.02 78.67 175.09 81.26 175.29 77.76 171.97 81.88 174 83 172.92 83.46 172.23 84.5 175.11 84.22 173.5 85.81 173.53 88.31 170.27 89.23 169.66 87.32 169.41 90.52 168.52 88.64 168.54 91.02 167.4 90.01 167.55 91.34 165.05 92.07 163.98 94.86 160.87 95.27 160.2 93.37 162.22 93.05 163.64 90.36 161.98 91.74"/></svg>
