<svg id="Layer_1" data-name="Layer 1" xmlns="http://www.w3.org/2000/svg" viewBox="0 0 254.57 256"><title>FL</title><polygon points="181.68 255.5 181.33 255.6 181.86 255.36 181.68 255.5"/><polygon points="195.05 254.83 195.35 255.49 192.44 256 192.59 255.4 195.05 254.83"/><polygon points="198.1 254.07 198.25 254.73 195.57 255.49 196.09 253.89 198.1 254.07"/><polygon points="181.68 253.91 182.02 254.25 181.98 255.04 180.75 253.98 181.68 253.91"/><polygon points="206.72 251.71 206.57 252 206.23 251.72 206.47 251.55 206.72 251.71"/><polygon points="211.81 251.53 211.42 251.63 212.03 251.09 212.09 251.25 211.81 251.53"/><polygon points="205.71 251.51 204.95 251.35 205.14 250.7 205.4 250.73 205.71 251.51"/><polygon points="201.63 250.42 203.35 252.62 198.74 254.45 200.7 251.82 202.6 252.88 201.63 250.42"/><polygon points="204.28 251.04 203.17 251.47 203.04 250.06 203.81 250.28 204.28 251.04"/><polygon points="210.08 250.78 209.29 250.25 209.33 249.84 209.9 250.21 210.08 250.78"/><polygon points="218.31 250.02 216.42 249.73 219.81 248.68 219.68 249.06 218.31 250.02"/><polygon points="209.19 252.05 208.41 252.64 206.04 247.86 207.54 248.92 209.19 252.05"/><polygon points="222.67 248.09 220.05 249.2 223.91 247.09 222.67 248.09"/><polygon points="228.19 245.09 228.19 245.75 226.34 246.01 228.26 244.45 228.19 245.09"/><polygon points="231.15 243.84 230.44 244.17 231.76 243 231.81 243.18 231.15 243.84"/><polygon points="233.66 242.08 233.29 242.22 234.65 240.66 234.38 241.33 233.66 242.08"/><polygon points="219.4 227.66 218.87 227.72 218.66 226.44 219.72 226.54 219.4 227.66"/><polygon points="217.26 225.35 218.09 225.32 218.03 226.33 216.92 225.41 217.26 225.35"/><polygon points="243.67 232.2 236.06 240.31 235.38 240.32 243.81 229.57 243.39 227.31 247.49 225.03 243.67 232.2"/><polygon points="248.7 222.28 247.96 222.66 249.68 219.07 249.5 220.59 248.7 222.28"/><polygon points="250.69 212.08 249.87 212 250.52 209.93 250.75 209.93 250.69 212.08"/><polygon points="208.16 206.87 205.84 207.33 205.82 205.84 206.2 205.52 208.16 206.87"/><polygon points="204.96 204.94 205.15 206.6 203.04 205.59 203.63 204.93 204.96 204.94"/><polygon points="197.59 203.53 198.15 204.11 197.09 205.01 196.46 203.63 197.59 203.53"/><polygon points="202.47 204.73 202.14 205.4 201.7 203.47 202.37 203.79 202.47 204.73"/><polygon points="181.94 181.79 185.5 182.35 180.74 182.04 179.34 178.31 181.94 181.79"/><polygon points="178.53 175.09 178.65 175.95 177.48 172.47 177.97 172.73 178.53 175.09"/><polygon points="183.64 179.95 182.68 179.66 180.35 172.49 182.18 173.47 183.64 179.95"/><polygon points="177.53 171.07 177.27 171.93 176.78 168.28 177.41 169.42 177.53 171.07"/><polygon points="166.24 147.66 166.37 148.25 163.25 143.97 164.16 144.54 166.24 147.66"/><polygon points="165.96 139.48 166.07 139.43 166.01 139.51 165.96 139.48"/><polygon points="165.96 139.48 165.32 139.74 165.58 139.3 165.96 139.48"/><polygon points="250 153.43 245.62 144.94 240.3 127.96 243.18 133.98 250 153.43"/><polygon points="233.93 115.48 233.67 115.48 233.25 113.86 233.82 115.11 233.93 115.48"/><polygon points="234.45 100.48 232.9 105.57 233.21 113.77 230.1 102.48 232.97 99.54 234.45 100.48"/><polygon points="163.87 93.57 164.45 93.71 164.18 94.48 163.42 94.04 163.87 93.57"/><polygon points="163.92 92.7 163.4 92.65 163.5 91.64 164.22 92.06 163.92 92.7"/><polygon points="152.09 77.93 151.36 77.97 151.39 77.43 151.64 77.22 152.09 77.93"/><polygon points="83.23 54.89 82 56.85 78.95 54.63 81.48 54.45 83.23 54.89"/><polygon points="87.07 57.89 84.37 58.03 82.77 57.14 86.48 57.53 96.63 52.3 87.07 57.89"/><polygon points="99.49 51.43 97.59 51.77 100.62 50.27 99.49 51.43"/><polygon points="34.66 25.08 11.69 26.8 9.84 26.45 30.04 24.32 36.02 25.14 34.66 25.08"/><path d="M88.07,61.43l7.38-9.91-1-4.11-1.72-.14-.42,3.82-1.52-.15-.43-4.57-5.09-3.74,0,2.59,1.58.1-2.58,1.55,5.37,1.68-3.26,7.34-5.47-5.37,2.55,4,.67,2.67-4.59-9,6.88-21.48,1.23-9.55L85.85,13l1.86.81-.07-4L84.5,7,82.12-1.38,74-1.72l-5.77-9-6.3-4.82.35-4.74-4.88-2.95-4.45-7.58L41.55-38.29l-5.23,1.17-1-1.35-6.22,3,1.45,2.16L27-34.77l-.44.58,4.1,1.79-.26,1.72-1,.55L25-31.61,12.42-24.7l.16-2.76L8-24.18l-11.61,1L-5-24.66l-.54-5.27L-3-23.52l1.1-4.2-1.7-3.58-10.51-9.94,7.81,4.74,1.65-1.31-2.29.71-.94-4.13-2.57.93-4.94-3.38,5.69-3.23-.67-1.43-4.54,2.69-1.43-2.86-3.44,2,3.25,1.43,1,3.81-11.33-7.15L-41.6-53.08l5.48.75,1.26-1.55,2.27,1.71-.13-1.59,4.29,2.39-.52-4.05-2.27-.95L-38.06-55l0-2.2-2.53-.36-4,3.91-6-.46-14,1.67,10.32-2.92L-58.27-58l1.86-2-2.2-1.8-2.46,6-2.65-5.42.56,4.31-3.92,4.35-9,2.57,6.56-5.93-3-3.62,1.45-5.42-6.93-8L-76.63-78,9.72-73.89l4,11,88,8,2.39,7.76,3.95-.38.37-14,2.67-3.13,17.41,4.65,0,6.83-1.7-3.75-.39,2.69,3,3.68,5.1,25.8L145.86,3.2l10.08,16.12,3.39,6.87-2.24,2.75.09,7.49,4.9,13.18-5.85-13.14.62-15.2-5.65-.45.46-5-3.27-1.87,3.78,16.12,12.35,27.29,1.26,5.85L171,76.07l-.7-1.11L166.9,73.7l5.75,4,3.92,12.62-2.87,40.05-.16-4.87-6,11-.21,9.55-3.8,4.61.74,2.55L162.52,151l-1.68.89,1.41.42.54,1.39-2.21-1-.23-1.85L153,154.88l-4.64-1.66-8.14,2.5L138,154l-.93-3.61,1.61-3.3,1.83,2.77,3.25,1.48-.72.79,2.87-1.91-7.63-4.68-1.62-6.78-6.43-10.68-8.75-4.32-3.82,1,2.38-2.34-2.35-.76-1.9-5.38-.49,1.58-1.83-13.54-.92-1.83-.18,2-4.13-1.19,7.92-9.23-4.41,2.77-1.59,3.81-3.58,0-1.35-14.14,4.14-3.32-6.14,2.59L99.13,82.3l4.2,8.26-5.65-1.84-8.4-16.6-.35-4.59-4.27-2.37-1-2.33,2.45,2.09-.69-1.62,3.06,0-1.63-.82,2.24-1.35-1,.26m61.42,14.33-9.78,8.77,7.12,8.31,5.35,2.36L156.42,84l-2.11-5.23Z" transform="translate(78 78)"/></svg>