<svg xmlns="http://www.w3.org/2000/svg" viewBox="0 0 73.93 47.26"><title>Asset 1</title><polygon points="62.96 29.9 68.25 31.87 73.93 38.37 62.02 47.26 58.84 45.09 56.75 35.38 60.02 31.73 59.37 27.92 62.96 29.9"/><polygon points="49.82 24.36 48.45 24.6 47.85 24.29 49.62 23.21 49.82 24.36"/><polygon points="45.44 21.16 44.08 21.07 42.98 18.95 45.91 19.45 45.44 21.16"/><polygon points="49.42 17.04 50.92 19.03 54.07 18.45 57.4 21.49 51.81 23.5 47.74 18.71 49.42 17.04"/><polygon points="40.51 14.41 45.27 15.28 47.74 15.28 40.06 16.37 40.51 14.41"/><polygon points="31.61 9.03 33.97 11.01 34.15 13.8 30.34 11.92 28.84 13.37 26.5 9.41 30.54 7.41 31.61 9.03"/><polygon points="0.43 5.96 0 4.71 2.34 2.89 2.14 4.36 0.43 5.96"/><polygon points="11.89 0.01 10.49 5.03 6.03 2.71 8.71 0 11.89 0.01"/></svg>
