<svg id="Layer_1" data-name="Layer 1" xmlns="http://www.w3.org/2000/svg" viewBox="0 0 160.6 256"><title>ID</title><polygon points="159.36 165.84 160.6 256 80.06 255.63 0 252.5 3.43 186.45 7.79 174.1 5.87 170.67 0.19 169.27 0.37 162.58 9.96 149.26 11.12 143.57 21.87 123.32 19.96 117.36 12.8 111.61 8.66 94.39 14.76 0 38.28 1.36 36.45 37.08 43.94 48.44 43.36 53.63 45.53 56.49 43.39 57.75 52.7 64.57 66.11 84.89 68.58 83.8 70.85 87.64 76.79 86.82 73.71 104.09 71.92 105.17 74.55 115.07 70.34 118.73 71.68 121.61 70.34 126.48 76.43 129.73 84.43 122.02 89.08 125.55 91.11 136.38 98.03 146.87 98.02 152.62 100.56 155.13 105.48 155.84 109.12 167.11 113.16 170.34 115.44 166.32 124.77 167.46 128.6 163.48 148.78 164.11 147.87 160.7 150.9 156.66 159.36 165.84"/></svg>