<svg id="Layer_1" data-name="Layer 1" xmlns="http://www.w3.org/2000/svg" viewBox="0 0 256 108.34"><title>KY</title><polygon points="2.41 105.82 0.2 105.75 0 103.37 2.26 103.59 2.41 105.82"/><polygon points="167.13 2.9 173.43 1.9 177.91 5.46 180.84 13.57 192.38 16.11 197.38 21.27 203.27 18.34 210.84 22.71 215.89 21.92 219.79 17.81 224.52 16.53 226.59 23.14 234.51 30.01 235.22 37.19 233.14 40.84 241.28 54.87 250.5 65.29 256 66.46 243.34 77.65 232.39 83.78 226.25 93.77 219.77 95.93 217.59 100.08 197.34 107.28 58.59 102.58 50.98 100.31 51.47 108.34 4.77 106.06 6.91 100.55 11.65 103.01 14.88 96.72 16.12 87.24 14.34 82.94 17.97 77.96 23.78 76.8 37.65 83.67 39.47 81.07 37.15 73.96 38.1 70.59 51.57 66.72 49.69 59.4 53.64 53.57 56.73 54.74 58.52 52.8 57.78 48.85 62 50.91 65.71 49.85 66.57 53.3 68.46 52.04 68.73 47.04 70.29 49.74 75.1 48.71 84.42 55.44 87.86 50.08 94.61 47.09 100.9 53.18 104.35 49.73 104.61 45.45 107.11 44.32 106.59 41.44 110.86 41.13 109.25 39.1 112.23 40.89 113.21 44.88 120.03 48.76 124.07 46.35 127.61 36.01 133.06 34.75 135.63 28.44 141.45 24.64 140.23 17.38 146.72 16.85 149.03 18.85 157.28 14.79 161.1 14.94 162.29 10.61 159.23 9.46 161.03 7.19 159.42 3.52 164.11 0 167.13 2.9"/></svg>