<svg id="Layer_1" data-name="Layer 1" xmlns="http://www.w3.org/2000/svg" viewBox="0 0 256 156.18"><title>MA</title><polygon points="249.82 142.89 254.02 153.99 246.62 156.18 234.7 152.94 248.18 150.45 250.43 146.86 246 150.15 248.7 144.18 247.83 141.61 249.82 142.89"/><polygon points="219.18 145.14 217.83 145.84 215.26 142.67 218.45 139.18 219.18 145.14"/><polygon points="208.52 135.27 207.77 137.53 211.19 135.53 211.91 137.87 209.76 139.47 214.03 140.78 214.8 145.65 203.37 146.31 195.38 150.28 191.02 146.24 196.97 144.88 203.71 136.77 208.52 135.27"/><polygon points="250.93 126.81 249.54 127.14 252.85 117.21 253.87 119.21 250.93 126.81"/><polygon points="187.5 1.11 191.5 0.82 191.9 5.71 188.06 5.74 193.3 10.09 195.41 16.2 191.97 13.02 192.26 16 197.81 19.51 195.44 20.18 196.73 21.86 200.68 22.2 202.05 24.21 202.2 20.78 205.56 18.18 208.07 23.93 200.21 29.05 187.25 33.39 186.31 36.73 188.95 34.71 190.1 37.05 184.17 40.3 186.35 43.86 181.28 42.94 182.08 50.48 178.9 48.48 179.61 50.5 176.08 49.27 175.25 50.53 177.68 52.48 175.72 53.17 176 55.45 179.2 55.14 178.82 57.75 181.4 58.07 181.95 61.61 188.19 59.5 185.94 54.38 197.15 62.22 208.12 83.02 204.77 83.7 206.23 83.09 203.96 78.48 202.82 83.72 200.38 83.75 205.83 89.02 211.47 90.34 212.46 102.24 214.55 104.72 222.02 108.94 231.07 109.65 226.76 111.34 233.32 110.78 249.15 104.13 250.64 101.68 248.95 93.02 251.41 91.61 247.72 89.72 245.6 94.39 242.82 79.95 237.99 78.26 236.78 81.82 232.6 77.47 234.19 75.12 238.97 75.23 245.79 79.23 251.57 86.38 256 99.5 252.95 98.18 252.12 103.49 255.39 103.83 255.27 115.21 237.6 116.81 231.39 121.69 232.18 118.26 222.84 120.98 220.91 119.01 214.81 126.39 201.79 129.68 204.13 125.14 203.61 114.95 206.06 110.62 204.87 109.52 203.58 111.36 199.81 108.89 199.69 114.66 197.79 114.46 195.31 118.68 193.62 117.49 189.89 120.33 190.26 123.87 185.91 119.35 182.93 129.3 176.29 132.15 174.15 131.19 176.01 129.29 174.67 126.67 173.86 129.13 171.19 128.65 172.19 130.6 170.41 131.61 169.67 117.43 165.16 115.95 171.09 104.39 166.42 111.16 163.2 110.72 162.07 112.83 155.82 106.31 154.81 95.52 151.84 94.48 151.25 83.52 53.41 81.21 52.97 83.39 49.88 83.66 49.83 81.16 1.85 78.18 0 75.79 19.44 11.83 156.87 17.9 164.63 12.97 168.5 6.84 173.24 6.49 183.65 0 187.5 1.11"/></svg>