<svg id="Layer_1" data-name="Layer 1" xmlns="http://www.w3.org/2000/svg" viewBox="0 0 256 133.53"><title>MD</title><polygon points="201.44 128.18 200.36 131 198.34 129.64 200.77 128.48 198.56 125.17 201.44 128.18"/><polygon points="200.02 115.78 197.19 116.11 196.26 114.44 198.54 113.09 200.02 115.78"/><polygon points="244.99 125.12 248.57 115.41 253.42 105.4 247.81 121.98 244.99 125.12"/><polygon points="255.07 101.57 254.16 102.87 255.19 94.22 256 94.2 255.07 101.57"/><polygon points="14.65 0.34 211.81 1.49 217.56 94.87 253.69 94.26 252.01 94.81 253.04 97.14 248.13 96.95 251.46 98.31 250.59 100.92 253.35 101.83 252.71 104.41 249.38 110.56 247.42 110.69 247.97 108.53 245.34 110.26 242.59 119.04 238.4 121.34 237.37 126.27 223.11 128.4 221.83 130.95 213.43 130.18 209.29 133.53 209.97 128.88 207.59 129.36 215.83 120.19 209.45 121.79 213.84 117.7 212.81 116.69 204.3 118.53 204.95 114.23 211.3 111.19 206.15 108.51 209.71 98.63 202.91 110.24 200.91 105.46 203.26 102.64 202.68 100.99 201.21 101.85 198.53 105.76 198.55 111.43 188.46 99.77 188.15 105.31 182.07 93.78 183.95 91.83 185.28 94.37 186.48 90.26 190.53 86.9 188.97 85.62 183.93 87.21 185.63 84.64 184.4 82.64 191.1 82.13 191.13 84.09 198.11 86.04 202.18 83.81 202.57 79.94 198.88 84.02 195.87 82.78 195.07 80.03 191.49 80.52 194.26 78.02 190.79 78.4 190.65 74.99 188.4 77.7 187.28 71.5 184.41 75.03 184.37 70.63 182.78 77.11 180.38 77.86 184.28 66.7 189.91 71.48 193.53 70.75 193.77 68.41 191.84 70.36 189.8 68.45 194.13 63.88 191.32 62.63 191.65 60.45 189.19 62.47 189.36 59.35 186.57 57.36 181.26 61.15 181.69 64.51 179.49 64 181.98 52.82 186.28 55.6 190.48 55.19 190.43 50.73 196.28 44.09 189.98 45.77 187.69 52.27 185.04 43.55 189.86 31.61 193.17 28 209.04 27.32 198.83 25.49 203.48 19.79 208.96 20.73 205.79 17.25 209.27 11.62 199.98 20.38 203.37 10.23 200.27 13.3 194.95 13.74 192.86 18.39 195.91 21.1 187.84 28.05 186.47 19.96 184.56 27.03 185.74 29.58 183.6 32.07 181.99 25.29 176.85 26.08 180.81 29.12 178.74 31.91 175.2 31.58 176.91 36.14 172.19 32.15 174.26 36.1 177.74 37.74 175.41 39.73 167.16 34.78 164.2 35.94 171.9 43.32 173.9 42.39 175.9 49.88 170.52 48.53 177.44 53.21 173.67 55.33 168.95 49.72 167.37 50.18 174.56 60.17 169.03 57.69 172.5 62.55 169.26 63.06 169.48 67.05 172.35 66.54 168.57 73.13 170.86 76.18 170.93 88.31 177.75 98.34 178.49 102.81 174.28 103.08 163.61 92.38 161.01 78.75 161.41 89.36 164.66 97.61 171 101.67 174.2 106.47 178.43 106.05 177.88 110.62 182.07 116.73 182.74 125.08 176.91 120.59 174.24 113.51 173.53 118.52 171.48 116.55 170.72 119.08 164.45 110.77 156.04 110.95 152.6 102.11 149.52 99.46 151.95 106.55 151.71 108.38 148.97 107.45 140.78 93.38 138.35 97.84 136.38 94.38 134.17 100.19 129.73 100.78 127.47 94.34 129.43 87.79 132.88 86.32 131.93 84.25 135.28 83.3 137.03 78.52 141.73 75.72 141.46 69.48 147.82 63.03 140.18 55.42 136.08 59.55 129.16 56.11 126.94 51.6 117.02 48.84 113.03 43.8 116.23 39.76 115.83 37.1 110.6 33 99.58 29.08 99.84 23.77 96.5 21.89 98.57 17.95 95.71 18.29 94.71 14.9 93.47 16.89 92.34 13.31 94.81 12.07 94.28 9.8 87.31 10.48 78.05 3.02 75.12 2.77 69.6 7.78 60.82 8.47 62.36 10.71 59.59 11.24 60.78 13.07 58.71 15.12 52.52 15.34 42.8 11.62 43.47 9.16 41.4 7.12 39.4 12.2 30.67 20.45 25.57 18.24 22.41 19.3 11.39 30.96 0 37.94 1.51 0 14.65 0.34"/></svg>