<svg id="Layer_1" data-name="Layer 1" xmlns="http://www.w3.org/2000/svg" viewBox="0 0 171.37 256"><title>ME</title><polygon points="94.58 200.1 91.95 199.45 90.59 195.58 96.03 197.49 94.58 200.1"/><polygon points="102.78 189.15 101 190.6 102.41 192.25 98.45 192.47 100.05 186.46 102.78 189.15"/><polygon points="120.33 184.15 115.48 184.17 116.23 187.6 114.32 189.17 110.37 184.68 113.72 177.41 117.13 176.47 120.89 181.29 120.33 184.15"/><polygon points="88.34 13.81 91.69 15.55 106.61 8.87 110.43 9.55 115.34 5.14 127.66 13.61 134.93 21.87 137.82 90.27 135.9 102.45 144.19 107.83 151.48 109.04 151.75 112.84 149 115.24 151.75 121.45 150.08 128.58 156.5 135.11 159.13 132.06 162.87 133.9 168.57 144.51 167.67 146.99 165.37 146.03 165.24 149.19 161.82 148.65 164.19 153.87 166.64 149.55 168.57 152.71 167.85 148.98 171.37 153.74 162.35 163.98 159.59 163.23 158.83 164.79 156.6 160.23 153.94 160.89 155.2 165.07 153.45 166.96 152.34 163.24 151.56 166.47 147.32 164.19 145.34 171.05 142.97 168.8 140.11 172.56 139.36 167.12 137.65 171.15 137.76 166.8 135.85 167.83 132.82 178.86 132.78 173.6 131.35 178.2 129.59 172.89 127.46 174.7 129.77 178.99 126.17 182.96 123.97 174.04 122.38 172.83 121.03 175.29 120.15 171.41 119.32 174.87 115.68 171.19 117.19 175.73 113.73 174.9 111.44 178.52 110.48 173.69 108.53 173.3 109.1 179.39 108.24 176.91 104.48 178.15 105.86 188.36 97.81 183 94.06 183.79 94.78 180.58 99.21 178.21 98.41 176.1 94.28 178.65 97.41 170.7 94.93 169.34 94.67 174.48 87.1 177.49 89.14 182.75 82.69 194.21 83.64 198.27 78.25 202.61 78.23 205.02 75.16 206.3 77.07 201.69 73.16 205.6 73.5 203.27 70.68 203.75 70.95 198.57 64.49 211.78 63.37 208.08 63.01 211.77 63.73 200.82 61.47 205.06 61.09 213.34 61.01 210.9 57.83 209.41 59.88 206.87 58.46 204.62 59.68 200.4 54.05 208.6 54.53 212.85 56.33 211.25 53.98 216.07 53.2 198.48 48.77 203.45 49.43 204.66 51.2 203.09 52.57 217.61 50.93 219.63 48.93 209.46 48.7 213.57 44.28 217.86 46.88 211.9 42.48 217.03 45.84 210.66 42.89 211.82 44.38 209.84 35.88 215.9 33.65 221.32 31.3 222.07 34.53 223.05 34.69 227.41 28.73 228.55 27.57 232.78 29.56 233.69 20.44 240.59 14.23 255.48 11.11 253.85 10.59 256 7.22 251.33 7.5 246.3 1.09 237.43 0 124.89 4.9 122.68 7.85 129.24 11.47 118.23 16.23 120.41 18.56 119.3 15.04 113.35 21.08 105.04 28.2 101.39 28.49 96.24 34.93 89.4 32.8 85.82 33.09 80.14 35.97 76.59 34.56 72.38 38.52 63.84 43.24 60.34 46.27 43.64 77.34 0 84.57 1.3 84.99 10.86 88.34 13.81"/></svg>