<svg id="Layer_1" data-name="Layer 1" xmlns="http://www.w3.org/2000/svg" viewBox="0 0 223.01 256"><title>MI</title><polygon points="203.23 238.79 202.51 239.03 203.16 235.36 203.28 237.63 203.23 238.79"/><polygon points="116.61 125.91 115.38 125.41 116.48 124.07 117.43 124.58 116.61 125.91"/><polygon points="120.28 122.97 118.75 122.88 118.52 119.78 120.08 120.64 120.28 122.97"/><polygon points="124.36 110.03 124.19 110.71 122.91 108.2 123.72 108.81 124.36 110.03"/><polygon points="132.39 102.81 129.93 102.17 131.82 95.72 133.69 96.24 132.39 102.81"/><polygon points="155.21 95.46 161 99.2 168.62 100.58 171.72 105.65 176.52 105.95 192.28 114.25 195.85 123.59 191.67 122.26 190.52 125.01 195.12 132.53 194.89 150.61 189.35 154.25 187.89 162.31 180.28 165.38 178.27 175.75 185.94 180.25 189.84 175.47 191.22 176.35 195.38 168.43 193.4 167.69 197.7 164.98 206.15 161.31 212.13 164.67 215.4 171.22 223.01 202.21 220.49 217.96 217.17 220.54 217.36 215.68 212.09 217.04 213.36 219.06 210.81 220.81 210.26 226.91 203.58 232.46 201.86 238.93 202.38 242.4 194.28 253.62 155.1 256 155.06 253.71 94.76 253.84 100.29 249.3 108.51 234.43 113.22 216.56 113 204.98 110.16 196.35 112.23 194.47 109.32 194.95 104.05 180.38 107.13 172.75 104.87 162.45 112.02 151.01 112 138.66 116.98 136.12 117.43 129.69 121.34 127.05 124.28 128.21 131.73 117.86 129.1 132.13 130.5 134.76 133.66 126.33 132.38 135.53 136.53 125.95 137.14 114.78 149.76 109.57 146.23 108.68 144.36 105.52 144.92 101.41 148.73 97.41 147.27 95.57 155.21 95.46"/><polygon points="163.6 94.46 164.08 96.57 162.15 97.13 158.59 94.03 163.6 94.46"/><polygon points="134.24 94.33 133.18 94.68 132.93 93.27 133.02 93.42 134.24 94.33"/><polygon points="164.09 86.94 163.94 87.46 165.09 88.27 162.81 87.77 164.09 86.94"/><polygon points="188.73 85.74 186.52 88.86 177.57 86.64 183.05 84.13 182.9 81.77 188.73 85.74"/><polygon points="171.1 76.64 168.72 74.93 169.09 73.34 170.84 74.73 171.1 76.64"/><polygon points="170.91 72.7 169.23 72.77 166.43 67.53 168.53 64.96 170.58 65.75 169.15 69.39 170.91 72.7"/><polygon points="102.19 67.33 103.14 68.36 101.18 68.26 100.89 64.63 102.19 67.33"/><polygon points="51.65 44.73 53.79 47.37 52.63 55.53 54.75 51.95 61.78 48.05 57.5 53.28 62.41 49.75 71.09 51.01 75.52 53.96 82.24 65.98 86.23 67 92.56 65.14 95.57 68.8 98.91 67.21 101.63 69.75 115.63 59.84 132.53 60.08 147.9 55.9 145.68 66.98 151.69 68.8 156.1 66.97 158.52 70.01 164.81 66.61 169.32 76.56 167.18 78.14 173.54 80.49 172.84 82.39 177.44 85.82 177.1 87.44 162 86.1 159.91 87.03 156.4 84.52 154.39 92.39 146.42 85.88 132.57 82.78 129.32 87.35 122.39 87.99 121.79 89.81 112.66 88.82 109.72 94.36 105.13 96.37 102.39 102.4 99.91 99.8 102.26 95.45 104.06 95.61 104.52 91.62 98.14 92.24 95.94 97.49 92.95 99.09 92.43 89.89 89.38 98.63 74.92 119.14 74.98 121.83 71.32 118.32 73.25 110.98 67.35 110.94 69.83 98.8 61.47 94.02 61.25 88.96 50.21 84.94 41.78 84.25 34.22 79.53 7.29 70.7 4.59 63.93 0 61.85 17.05 51.88 27.82 51.05 35.25 45.75 39.63 45.41 48.27 37.09 48.79 40.53 49.36 41.16 52.02 42.19 51.65 44.73"/><polygon points="73.39 30.13 65.62 31.4 67.41 33.04 60.14 38.24 54.26 46.97 52.75 44.01 54.42 42.3 55.17 38.93 54.05 42.12 49.22 40.48 49.7 37.11 58.56 29.56 70.99 28.04 73.39 30.13"/><polygon points="53.57 0.46 54.91 0 49.93 5.75 40.05 10.56 42.39 10.92 34.38 12.15 36.95 8.03 53.57 0.46"/></svg>