<svg id="Layer_1" data-name="Layer 1" xmlns="http://www.w3.org/2000/svg" viewBox="0 0 256 236.42"><title>MO</title><polygon points="164.87 16.86 161.8 27.05 164.31 42.54 167.86 50.31 190.22 72.02 192.96 86.2 195.92 91.45 199.22 91.27 203.65 87.61 215.42 94.43 205.66 119.06 206.31 124.61 216.23 135.07 223.69 138.23 239.63 151.77 239.7 158.62 243.04 165.74 239.84 172.28 245.8 183.25 249.92 185.53 248.52 182.02 250.47 181.4 253.42 186.48 256 186.49 255.79 197.42 252.15 206.48 246.33 203.93 242.05 213 241.03 207.92 238.34 207.84 239.99 216.46 236.07 218.6 238.97 221.91 233.43 223.34 236.75 228.57 232.35 235.66 205.75 236.42 209.04 230.15 218.34 221.42 218.44 217.07 214.48 210.82 34.78 207.3 40.86 74.72 32.57 71.1 30.25 62.57 22.49 53.91 28.43 44.77 32.08 44.78 31.99 40.82 29.65 36.68 24.04 38.43 12.3 29.14 10.6 18.79 3.82 14.74 2.66 4.27 0 2.59 0.18 0 66.88 4.61 154 4.77 164.87 16.86"/></svg>