<svg id="Layer_1" data-name="Layer 1" xmlns="http://www.w3.org/2000/svg" viewBox="0 0 133.36 256"><title>NH</title><polygon points="104.94 5.27 114.94 171.28 113.72 187.78 124.97 202.17 124.83 210.59 130.75 218.17 130.03 220.6 133.27 219.96 133.36 221.92 125.9 238.52 117.84 237.69 107.17 244.38 102.31 244.74 98.35 251.04 91.12 256 6.28 253.11 0.35 242.86 0 238.43 2.52 228.86 6.23 225.93 8.8 201.65 11.34 197.02 12.41 171.71 16.67 166.26 18.65 155.8 25.3 149.5 27.7 139.66 33.45 130.99 32.23 128.27 36.76 118.1 37.73 100.69 41.91 95.05 50.66 94.24 63.46 84.58 69.07 77.79 69.41 72.42 72.5 70.76 66.48 55.65 74.89 40.42 73.68 30.1 82.3 9.89 79.34 7.75 88.87 1.09 99.39 5.79 104.63 0 104.94 5.27"/></svg>