<svg id="Layer_1" data-name="Layer 1" xmlns="http://www.w3.org/2000/svg" viewBox="0 0 256 62.52"><title>PR</title><polygon points="194.91 56.97 194.78 56.97 194.78 56.85 194.91 56.97"/><path d="M-9.77,50.53-8.7,49l-1.52-3.47-.77-.14h5.93l-3.78-4.67-1.81-.45L-14,34.07l5.16-1.91,3.58-2.29.71.34-.62-.39,2-1.86-1.28-4,.25-1.87,2.69-2.36L2.24,19l7.15.42,4,1.93,6.68.82,3.69-.84,3.61.51,4-.57L35.16,23l3.35.32,3.34-1.73,4.48-.44,4,1,3-.49.07.15.75.36.91.28-.21.18.09.1,1.63-.33.82,1.26-.08-1,2.67.78,7.68-2.3,1.64,1,.26-.57,3.77.38,4.7,1.37,1.67-.85,2.79,1.18,3.54.21L88.3,23l-.41,1.6,2,.84,2.39-1.58L91.94,23l1,.35-1,.93,1.08,1-1-.56.11.68,1.2.89,1.26-.25.3,1.64,2.45-1.32-2.24-1.82,1.66.15,0-.17L95.1,24l-1,.58-.79-1.3L101.4,25l1.47,1.05,1.83-.18,1-1.2.54.89-.59.37.44-.14.2.84,1,.51-.06-.94-.82-.15-.59-1.65L112,26l2-.8,2.39,1.47,4.11.62,1.75,2.14,2.39-1.13-.83,1.35.28.32,0,.1.07.07,2.11-1.08,0,1.28,2.33,1.81,2.37-.69.82,1.62,1.29.5L137,34l1.32-1.71,2.38-.69.13,1.48h4.5L150,35.69,140.2,41.5l.08,1L142,44.12l-.55.56.78,1.8,1.18.85-.65,1.93-2.6-.41-.3-2.2-1.42,1.89,1-.09.12,1.62-3.06-.62-2.7,2.88-2.95-1-1.37,1.47,1,1.46-.41.48-1.6.24V54l-1.8,1.42L124.92,61l-1.29,1.27.61.4-.44,1.23-.87.43-.87-.64-1.43,1.5,0,3.55-1-.41-1.27,1.09-1.2-.14-1.34,1.85-1.08-.27-2.09,1.49-5.72.76-2.33-1.67-4.08,3.16-1.91-1.37-1.73.2-6.81,3.54.47-1.36-.55,1-2.86-.67-.84.89-.66-.27-.32,0-.93-1.42,1.33-.69-.06-1-2.75,1.75.45.18,0,1.24-.65-1.29-.94.49.2.84-2.27-1.63L78,75.58l-.17-1.92-.66.22L74.81,72l-3.75,1,.26.68-.91,0,0,1-.61-.43L69,75.87l0-.29-1.64-1-2.28-.65.1-.83-.24.87L61.8,70.81l-6.25.77-4.83,2.06-.09-.29-.28-.15-.07.37-.67-.77-.71.25.2-1.84L48.8,73l-.56,0-.37.52-.79.1-.42-2L42,73.16l-4.11-2.34-2,0,0-.14-.13-.62-.31.77-.42-.72-.93,2.08-.54-.86,1.16-1.08-.56.41-.63-.32.78-.32-1.93.62-1.1,1.87L28,74.34l-3.28.6.1-.8-.64,1.11-.8-.73-.61.49-3.89.24-.38,1.8-3.13-.39.17-.73-2.33-1.31-.13-.91-2,0L9,72.58l-3.55-.31-1.25.31.35,0L4.12,74l-1-.68-.84.83.34.55-1,.53-.94-.71-1,.62-3.17-.7-.28-.83-1.58-.25-1.27,1.29.85,2-1.06-.16-2.27-2.61-.26-3.81,4.6-1.66-.18-1L-8.3,66.35l1.05-1.15-.06-4.31,1.54-1.3-.34-3,.93-1.63L-6,53.63l.47-.33-4.27-2.77M101.44,28.32l-.06-.57,1.39,1.31,2.18.31-.68-.3.82-.26-1.15-.08,1.13-.83-1.34,0,.23-1.6-.27,1.53-2-1.92-.7.13.86.81-.5.73-3.45-1.21-.49.18,3.89,1.07.13.66m0,0,0,.06,0,0,0-.06v0m38.73,11.53h0v0h0v0m-146,16.63.12,1.25h.53l.4-1-.49-.67-.56.42M17.88,33.19l.08,0,.45-.08.18-.39.23.66.93-.33,0,1.25,1.1-.54-2.06-1.35-.15-1.35-.8,2.1M93.47,29l0,.12.23-.08h0l-.2,0m11.08-1.81h.52v0h-.52m-8.77.88h0l.07-.15h0l-.08.14m1.58.13v0h0M96,27.75l-.07.17.79.17L96,27.7Z" transform="translate(78 -19)"/><polygon points="3.31 44.64 0.76 42.81 2.04 39.71 4.12 39.07 6.28 39.77 8.67 38.83 9.87 39.97 10.31 42.61 7.76 45.16 5.45 45.71 3.31 44.64"/><polygon points="0 35.57 0.15 35.31 0.45 35.59 0.38 35.66 0 35.57"/><polygon points="131.51 2.71 131.49 2.72 131.48 2.71 131.49 2.71 131.51 2.71"/><polygon points="241.61 19.17 241.27 19.03 241.04 18.69 241.55 18.74 241.61 19.17"/><polygon points="241.61 19.17 241.62 19.15 241.62 19.16 241.61 19.17"/><polygon points="232.87 41.64 230.65 41.43 225.97 42.87 223.37 41.82 222.59 39.1 228.34 38.2 228.62 35.98 229.16 37.72 234.7 36.45 235.75 35.31 239.36 34.83 248.25 36.94 249.7 36.24 251.66 37.62 249 38.3 247.97 37.51 247.78 38.41 246.32 38.43 245.96 38.98 244.63 39.75 244.65 39.89 241.61 39.55 240.73 40.47 239.09 39.89 235.73 41.85 235.47 40.58 234.67 40.56 235.43 41.31 234.5 42.34 233.84 41.39 232.87 41.64"/><polygon points="248.47 38.74 248.53 38.7 248.57 38.71 248.44 38.76 248.47 38.74"/><polygon points="241.2 40.28 241.23 40.22 241.26 40.21 241.23 40.3 241.2 40.28"/><polygon points="244.87 39.72 244.9 39.64 244.97 39.74 244.91 39.71 244.87 39.72"/><polygon points="247.81 38.84 247.84 38.73 247.9 38.75 247.9 38.9 247.81 38.84"/><polygon points="112.83 54.2 112.61 54.31 112.49 54.13 112.82 54.18 112.83 54.2"/><polygon points="128.31 54.6 128.43 54.39 128.53 54.39 128.54 54.63 128.31 54.6"/><polygon points="91.09 55.65 91.06 55.61 91.07 55.54 91.12 55.63 91.09 55.65"/><polygon points="90.98 55.9 90.98 55.89 91.02 55.91 91 55.91 90.98 55.9"/><polygon points="91.14 55.98 91.14 55.97 91.16 55.96 91.15 55.99 91.14 55.98"/><polygon points="91.16 56 91.17 55.98 91.18 55.98 91.18 56 91.16 56"/><rect x="97.56" y="56.17" width="0.02" height="0.02"/><polygon points="91.39 56.13 91.4 56.09 91.43 56.09 91.43 56.12 91.39 56.13"/><polygon points="97.59 56.16 97.61 56.14 97.64 56.16 97.62 56.19 97.59 56.16"/><polygon points="91.18 56.03 91.19 56 91.22 56 91.2 56.05 91.18 56.03"/><polygon points="91.91 57.78 91.93 57.77 91.98 57.79 91.95 57.8 91.91 57.78"/><polygon points="91.09 56 91.1 55.94 91.12 55.95 91.12 56 91.09 56"/><polygon points="97.63 56.13 97.66 56.09 97.7 56.09 97.67 56.14 97.63 56.13"/><polygon points="91.29 56.11 91.35 56.07 91.38 56.12 91.36 56.13 91.29 56.11"/><polygon points="101.35 56.39 101.51 56.36 101.61 56.45 101.39 56.42 101.35 56.39"/><polygon points="91.92 56.3 92.15 56.35 92.17 56.42 92.02 56.43 91.92 56.3"/><polygon points="101.63 56.36 101.84 56.07 101.94 56.13 101.91 56.37 101.63 56.36"/><polygon points="101.08 56.63 101.21 56.49 101.53 56.5 101.35 56.7 101.08 56.63"/><rect x="12.8" y="74.85" width="0.01" height="0.01" transform="translate(18.13 33.83) rotate(-63.43)"/><polygon points="83.25 54.24 83.26 54.22 83.28 54.22 83.27 54.25 83.25 54.24"/><polygon points="82.48 55.05 82.49 55.02 82.52 55.03 82.51 55.06 82.48 55.05"/><polygon points="83.11 54.17 83.14 54.16 83.15 54.18 83.14 54.19 83.11 54.17"/><polygon points="91.01 55.49 91.01 55.46 91.04 55.45 91.03 55.49 91.01 55.49"/><polygon points="85.11 55.44 85.14 55.45 85.14 55.47 85.12 55.47 85.11 55.44"/><polygon points="85.6 54.83 85.62 54.81 85.66 54.8 85.63 54.83 85.6 54.83"/><polygon points="90.44 55.8 90.48 55.78 90.5 55.8 90.47 55.83 90.44 55.8"/><polygon points="86.04 54.57 86.07 54.53 86.09 54.53 86.07 54.59 86.04 54.57"/><polygon points="83.32 54.29 83.34 54.26 83.37 54.27 83.35 54.3 83.32 54.29"/><polygon points="82.73 54.56 82.76 54.54 82.77 54.6 82.75 54.59 82.73 54.56"/><polygon points="80.73 54.79 80.76 54.77 80.78 54.77 80.75 54.82 80.73 54.79"/><polygon points="86.23 54.43 86.25 54.41 86.3 54.45 86.27 54.46 86.23 54.43"/><polygon points="85.95 54.65 85.98 54.63 86.02 54.67 85.99 54.68 85.95 54.65"/><polygon points="81.22 54.7 81.25 54.7 81.29 54.74 81.25 54.74 81.22 54.7"/><polygon points="90.73 55.8 90.78 55.81 90.78 55.85 90.73 55.83 90.73 55.8"/><polygon points="90.96 55.38 90.97 55.34 91.01 55.32 91 55.38 90.96 55.38"/><polygon points="90.83 55.88 90.87 55.86 90.94 55.92 90.9 55.92 90.83 55.88"/><polygon points="84.95 55.46 85.01 55.42 85.05 55.45 85.03 55.48 84.95 55.46"/><polygon points="85.93 53.73 85.99 53.7 86.01 53.73 85.97 53.76 85.93 53.73"/><polygon points="84.74 54.2 84.78 54.18 84.81 54.26 84.76 54.25 84.74 54.2"/><polygon points="85.69 54.79 85.84 54.77 85.86 54.8 85.79 54.82 85.69 54.79"/><polygon points="90.59 55.78 90.64 55.76 90.7 55.82 90.67 55.83 90.59 55.78"/><polygon points="84.81 53.74 84.87 53.73 84.91 53.78 84.85 53.78 84.81 53.74"/><polygon points="85.61 53.71 85.64 53.68 85.69 53.71 85.63 53.75 85.61 53.71"/><polygon points="82.69 54.38 82.73 54.34 82.77 54.37 82.72 54.43 82.69 54.38"/><polygon points="81.31 54.72 81.42 54.68 81.44 54.73 81.37 54.76 81.31 54.72"/><polygon points="87.22 53.96 87.24 53.91 87.38 53.98 87.24 53.98 87.22 53.96"/><polygon points="82.84 53.59 82.89 53.5 82.95 53.5 82.92 53.57 82.84 53.59"/><polygon points="88.44 54.61 88.5 54.62 88.56 54.75 88.47 54.7 88.44 54.61"/><polygon points="83.57 53.64 83.65 53.61 83.68 53.7 83.62 53.71 83.57 53.64"/><polygon points="83.3 53.46 83.35 53.41 83.4 53.5 83.34 53.52 83.3 53.46"/><polygon points="80.68 54.85 80.75 54.86 80.72 55.01 80.67 54.95 80.68 54.85"/><polygon points="83.43 53.45 83.5 53.34 83.58 53.34 83.49 53.46 83.43 53.45"/><polygon points="83.72 53.46 83.75 53.41 83.91 53.42 83.9 53.46 83.72 53.46"/><polygon points="81.19 54.53 81.25 54.45 81.35 54.52 81.29 54.6 81.19 54.53"/><polygon points="82.77 53.67 82.98 53.59 83.03 53.63 82.84 53.72 82.77 53.67"/><polygon points="83.05 53.58 83.11 53.37 83.2 53.39 83.23 53.55 83.05 53.58"/><polygon points="82.2 54 82.43 53.77 82.51 53.78 82.39 53.95 82.2 54"/><polygon points="85.05 53.8 85.21 53.77 85.48 53.93 85.25 54.07 85.05 53.8"/><polygon points="80.73 54.95 81.14 54.73 80.95 55.64 80.72 55.58 80.73 54.95"/><polygon points="155.91 57.42 155.92 57.4 155.93 57.46 155.92 57.45 155.91 57.42"/><polygon points="157.98 56.41 157.98 56.39 158.02 56.4 157.99 56.43 157.98 56.41"/><polygon points="157.91 56.45 157.95 56.44 157.96 56.47 157.94 56.48 157.91 56.45"/><polygon points="155.34 55.2 155.35 55.18 155.38 55.18 155.37 55.22 155.34 55.2"/><polygon points="160.05 59.16 160.09 59.16 160.07 59.21 160.06 59.21 160.05 59.16"/><polygon points="157.48 58.07 157.49 58.03 157.53 58.01 157.51 58.08 157.48 58.07"/><polygon points="158 56.52 158 56.49 158.09 56.47 158.05 56.53 158 56.52"/><polygon points="158.22 56.73 158.23 56.7 158.3 56.74 158.28 56.77 158.22 56.73"/><polygon points="153.06 57.69 153.1 57.71 153.14 57.83 153.12 57.91 153.04 57.99 153.06 57.69"/><polygon points="152.68 58.03 152.83 58.07 153 58.01 152.83 58.08 152.68 58.03"/><polygon points="158.07 56.55 158.17 56.49 158.2 56.52 158.09 56.59 158.07 56.55"/><polygon points="158.49 56.98 158.57 56.93 158.59 56.93 158.55 57.04 158.49 56.98"/><polygon points="155.94 57.42 155.97 57.34 155.98 57.31 156.02 57.42 155.94 57.42"/><polygon points="159 57.21 159.05 57.16 159.15 57.25 159.09 57.28 159 57.21"/><polygon points="160.5 57.79 160.58 57.8 160.59 57.89 160.51 57.88 160.5 57.79"/><polygon points="159.29 58.78 159.36 58.71 159.41 58.75 159.38 58.81 159.29 58.78"/><polygon points="155.6 57.28 155.63 57.21 155.7 57.19 155.69 57.33 155.6 57.28"/><polygon points="160.55 56.85 160.61 56.82 160.69 56.91 160.59 56.96 160.55 56.85"/><polygon points="158.31 56.82 158.53 56.82 158.53 56.88 158.44 56.92 158.31 56.82"/><polygon points="160.06 57.5 160.23 57.57 160.26 57.69 160.19 57.7 160.06 57.5"/><polygon points="161.28 59.1 161.4 58.99 161.48 59.05 161.4 59.18 161.28 59.1"/><polygon points="158.38 58.22 158.57 58.28 158.52 58.43 158.42 58.35 158.38 58.22"/><polygon points="158.56 58.42 158.58 58.31 158.88 58.53 158.69 58.54 158.56 58.42"/><polygon points="160.69 59.03 160.84 59.05 160.82 59.37 160.73 59.21 160.69 59.03"/><polygon points="160.46 59.25 160.63 59.3 160.64 59.05 160.66 59.4 160.46 59.25"/><polygon points="155.72 57.2 155.94 57.2 155.89 57.44 155.77 57.41 155.72 57.2"/><polygon points="159.44 58.83 159.63 58.75 159.62 58.88 159.68 59 159.66 59.05 159.44 58.83"/><polygon points="154.83 57.25 155.05 57.08 155.25 57.28 154.91 57.32 154.83 57.25"/><polygon points="159.68 58.91 160.01 58.95 160 59.18 159.69 59.1 159.68 58.91"/><polygon points="156.03 57.25 156.53 57.33 156.56 57.38 156.13 57.5 156.03 57.25"/><polygon points="160.5 57.1 160.84 57.02 160.87 57.3 160.56 57.3 160.5 57.1"/><polygon points="160.09 59.03 160.55 58.92 160.61 58.97 160.34 59.32 160.09 59.03"/><polygon points="155.22 55.21 155.5 55.1 155.62 55.89 155.36 55.8 155.22 55.21"/><polygon points="160.56 57.36 160.82 57.45 161.09 57.75 160.77 58.1 160.56 57.36"/><polygon points="160.92 59.17 161.35 59.34 161.5 59.11 161.95 59.38 161.17 59.41 160.92 59.17"/><polygon points="127.75 54.9 127.77 54.84 127.86 54.84 127.85 54.9 127.75 54.9"/><polygon points="119.22 55.42 119.34 55.5 119.33 55.58 119.28 55.56 119.22 55.42"/><polygon points="119.05 55.48 119.14 55.42 119.16 55.56 119.08 55.55 119.05 55.48"/><polygon points="123.45 55.06 123.5 55.02 123.68 55.11 123.54 55.18 123.45 55.06"/><polygon points="130.77 54.6 130.93 54.53 131.22 54.59 131.3 54.52 131.28 54.57 131.16 54.63 130.77 54.6"/><polygon points="133.02 62.52 133.09 62.41 133.3 62.31 133.24 62.48 133.02 62.52"/><polygon points="133.42 62.28 134.13 60.92 135.23 60.59 134.74 61.43 133.42 62.28"/><polygon points="163.06 58.51 163.09 58.53 163.09 58.55 163.08 58.55 163.06 58.51"/><polygon points="163.21 58.41 163.23 58.4 163.27 58.45 163.23 58.43 163.21 58.41"/><polygon points="163.69 58.06 163.7 58.03 163.76 58.09 163.74 58.1 163.69 58.06"/><polygon points="163.01 58.56 163.04 58.54 163.06 58.59 163.02 58.59 163.01 58.56"/><polygon points="163.62 58.06 163.66 58.11 163.66 58.14 163.62 58.1 163.62 58.06"/><polygon points="163.59 58.15 163.61 58.1 163.64 58.18 163.62 58.18 163.59 58.15"/><polygon points="163.13 58.11 163.19 58.15 163.19 58.18 163.16 58.16 163.13 58.11"/><polygon points="163.8 57.9 163.85 57.92 163.89 58 163.85 57.98 163.8 57.9"/><polygon points="163.02 58.38 163.12 58.45 163.15 58.52 163.08 58.48 163.02 58.38"/><polygon points="163.03 58.34 163.12 58.36 163.21 58.48 163.17 58.47 163.03 58.34"/><polygon points="163.08 58.25 163.19 58.26 163.31 58.43 163.23 58.4 163.08 58.25"/><polygon points="163.22 58.2 163.29 58.09 163.47 58.29 163.41 58.3 163.22 58.2"/><polygon points="163.84 57.67 164.08 57.78 164.15 57.97 164.08 57.96 163.84 57.67"/><polygon points="163.57 57.63 163.78 57.66 164.03 57.95 163.82 57.87 163.57 57.63"/><polygon points="162.68 58.58 162.89 58.3 163.03 58.68 162.8 58.64 162.68 58.58"/><polygon points="163.41 57.71 163.68 57.78 163.87 58.09 163.7 58.02 163.41 57.71"/><polygon points="163.27 58.04 163.48 57.91 163.6 58.26 163.47 58.21 163.27 58.04"/><polygon points="140.33 58.27 140.35 58.25 140.39 58.25 140.38 58.3 140.33 58.27"/><polygon points="140.35 58.35 140.47 58.24 140.58 58.34 140.46 58.41 140.35 58.35"/><polygon points="140.08 57.5 140.47 57.78 140.49 58.19 140.33 58.24 140.27 58.39 140.08 57.5"/><polygon points="151.13 54.2 151.18 54.22 151.16 54.26 151.13 54.23 151.13 54.2"/><polygon points="146.81 56.91 146.88 56.85 146.9 56.87 146.88 56.95 146.81 56.91"/><polygon points="148.81 57.79 148.89 57.77 148.91 57.86 148.84 57.85 148.81 57.79"/><polygon points="148.68 57.93 148.72 57.84 148.77 57.87 148.77 57.95 148.68 57.93"/><polygon points="146.48 56.78 146.59 56.7 146.63 56.71 146.59 56.81 146.48 56.78"/><polygon points="146.65 56.67 146.77 56.62 146.85 56.67 146.75 56.72 146.65 56.67"/><polygon points="145.35 55.8 145.41 55.81 145.53 55.95 145.44 55.96 145.35 55.8"/><polygon points="148.44 57.84 148.66 57.82 148.68 57.9 148.49 57.94 148.44 57.84"/><polygon points="149.75 58.13 150.05 58.06 150.12 57.75 150.06 58.09 149.75 58.13"/><polygon points="146.69 56.78 146.72 56.74 146.87 56.68 146.86 56.85 146.69 56.78"/><polygon points="147.1 58.58 147.27 58.48 147.29 58.67 147.2 58.7 147.1 58.58"/><polygon points="146.77 58.7 146.89 58.57 146.98 58.6 146.91 58.79 146.77 58.7"/><polygon points="145.55 55.97 145.93 56.08 146.23 56.3 146.26 56.53 145.55 55.97"/><polygon points="148.82 55 148.94 54.73 149.16 54.76 149.07 55.13 148.82 55"/><polygon points="77.86 56.1 77.88 56.07 77.94 56.08 77.91 56.11 77.86 56.1"/><polygon points="69.27 55.61 69.28 55.57 69.37 55.53 69.32 55.6 69.27 55.61"/><polygon points="76.9 55.78 77.22 55.74 77.33 55.87 77.17 55.94 76.9 55.78"/><polygon points="112.36 54.15 112.45 54.17 112.44 54.22 112.4 54.21 112.36 54.15"/><polygon points="113.66 52.7 113.74 52.59 113.83 52.59 113.8 52.73 113.66 52.7"/><polygon points="116.34 52.6 116.49 52.64 116.64 52.76 116.56 52.77 116.34 52.6"/><polygon points="114.3 53.92 114.43 53.9 114.47 54.04 114.31 54.08 114.3 53.92"/><polygon points="115.77 52.88 115.84 52.8 116 53 115.79 53 115.77 52.88"/><polygon points="114.32 53.69 114.41 53.62 114.55 53.7 114.39 53.88 114.32 53.69"/><polygon points="112.76 53.28 113.2 53.38 113.31 53.53 112.82 53.43 112.76 53.28"/><polygon points="113.75 52.57 114.03 52.37 114.14 52.47 113.97 52.67 113.83 52.7 113.84 52.59 113.75 52.57"/><polygon points="202.17 44.13 202.18 44.09 202.19 44.09 202.2 44.14 202.17 44.13"/><polygon points="202.21 44.09 202.24 44.05 202.28 44.09 202.23 44.13 202.21 44.09"/><polygon points="71.69 39.37 71.73 39.33 71.78 39.39 71.72 39.4 71.69 39.37"/><polygon points="70.5 42.78 70.57 42.77 70.59 42.85 70.52 42.83 70.5 42.78"/><polygon points="70.47 42.91 70.64 42.92 70.64 43.03 70.57 43.05 70.47 42.91"/><polygon points="204.45 39.48 204.46 39.45 204.52 39.45 204.49 39.52 204.45 39.48"/><polygon points="220.5 25.66 221.87 25.52 222.15 26.53 220.66 26.46 220.5 25.66"/><polygon points="222.35 26.42 222.66 26.19 222.78 26.27 222.6 26.58 222.35 26.42"/><polygon points="247.75 36.25 247.82 36.21 247.85 36.32 247.79 36.31 247.75 36.25"/><polygon points="230.89 34.85 231.07 34.88 231.22 34.97 231.07 34.89 230.89 34.85"/><polygon points="230 34.83 230.17 34.83 230.29 34.89 230.37 34.97 230 34.83"/><polygon points="216.99 28.57 217.01 28.54 217.03 28.57 216.99 28.6 216.99 28.57"/><polygon points="244.76 16.61 248.87 18.41 252.73 17.14 253.68 17.86 253.32 19.77 255.33 19.54 255.41 18.94 256 20.11 253.23 20.77 252.2 22.34 251.02 21.76 249.92 23.54 248.09 21.1 245.92 21.77 245.04 21.13 245.84 18.73 244.76 16.61"/><polygon points="253.32 21.5 253.32 21.64 253.15 21.51 253.23 21.47 253.32 21.5"/><polygon points="242.76 15.55 242.8 15.55 242.81 15.57 242.77 15.58 242.76 15.55"/><polygon points="253.06 21.33 253.09 21.34 253.08 21.38 253.07 21.37 253.06 21.33"/><polygon points="242.82 15.51 242.87 15.52 242.85 15.55 242.83 15.54 242.82 15.51"/><polygon points="244.14 15.51 244.19 15.52 244.19 15.56 244.16 15.56 244.14 15.51"/><polygon points="244.03 20.21 244.05 20.17 244.13 20.18 244.07 20.21 244.03 20.21"/><polygon points="243.61 19.91 243.66 19.88 243.69 19.93 243.64 19.93 243.61 19.91"/><polygon points="244.62 16.25 244.63 16.2 244.66 16.2 244.65 16.3 244.62 16.25"/><polygon points="244.49 16.27 244.58 16.23 244.59 16.29 244.53 16.3 244.49 16.27"/><polygon points="244.28 16.4 244.37 16.44 244.4 16.5 244.34 16.51 244.28 16.4"/><polygon points="244.14 20.19 244.16 20.12 244.24 20.12 244.23 20.22 244.14 20.19"/><polygon points="243.55 19.45 243.57 19.34 243.63 19.36 243.63 19.46 243.55 19.45"/><polygon points="242.04 15.21 242.08 15.16 242.23 15.31 242.06 15.33 242.04 15.21"/><polygon points="254.52 16.62 254.53 16.6 254.56 16.62 254.54 16.64 254.52 16.62"/><polygon points="254.4 16.9 254.41 16.86 254.43 16.83 254.46 16.89 254.4 16.9"/><polygon points="253.69 17.59 253.74 17.52 253.78 17.58 253.73 17.65 253.69 17.59"/><polygon points="254.08 18.8 254.18 18.78 254.23 18.86 254.16 18.87 254.08 18.8"/><polygon points="249.49 17.73 249.53 17.66 249.54 17.6 249.59 17.73 249.49 17.73"/><polygon points="254.85 17.36 254.9 17.31 255.21 17.61 254.85 17.45 254.85 17.36"/><polygon points="239.88 17.73 239.92 17.72 239.93 17.77 239.88 17.75 239.88 17.73"/><polygon points="239.95 18.09 239.97 18.09 240 18.14 239.97 18.13 239.95 18.09"/><polygon points="239.88 17.94 239.98 17.82 240.08 17.93 239.95 18.06 239.88 17.94"/><polygon points="108.26 2.19 108.27 2.17 108.31 2.18 108.3 2.19 108.26 2.19"/><polygon points="108.43 2.14 108.45 2.11 108.49 2.17 108.45 2.17 108.43 2.14"/><polygon points="146.74 2.37 146.75 2.37 146.76 2.38 146.75 2.38 146.74 2.37"/><polygon points="145.93 2.25 145.93 2.24 145.94 2.25 145.93 2.25 145.93 2.25"/><rect x="144.39" y="2.18" width="0.01" height="0.01"/><rect x="66.46" y="21.09" width="0.01" height="0.01" transform="translate(75.62 13.22) rotate(-26.78)"/><polygon points="145.07 2.14 145.08 2.13 145.09 2.13 145.09 2.14 145.07 2.14"/><polygon points="144.89 2.12 144.91 2.11 144.92 2.12 144.9 2.13 144.89 2.12"/><polygon points="145.21 2.2 145.23 2.19 145.24 2.19 145.23 2.21 145.21 2.2"/><polygon points="145 2.18 145.03 2.17 145.05 2.17 145.03 2.19 145 2.18"/><polygon points="144.58 2.19 144.59 2.17 144.63 2.17 144.61 2.19 144.58 2.19"/><polygon points="144.21 2.18 144.25 2.17 144.26 2.17 144.25 2.19 144.21 2.18"/><polygon points="145.32 2.21 145.34 2.19 145.38 2.19 145.35 2.21 145.32 2.21"/><polygon points="146.17 2.19 146.25 2.19 146.28 2.2 146.22 2.22 146.17 2.19"/><polygon points="147.57 2.44 147.68 2.44 147.72 2.48 147.6 2.49 147.57 2.44"/><polygon points="135.54 3.77 135.55 3.77 135.55 3.79 135.54 3.78 135.54 3.77"/><polygon points="134.02 3.2 134.02 3.19 134.03 3.19 134.03 3.2 134.02 3.2"/><rect x="134.07" y="3.17" width="0.01" height="0.01"/><polygon points="133.61 3.02 133.61 3.02 133.63 3.02 133.62 3.02 133.61 3.02"/><polygon points="135.93 3.9 135.93 3.89 135.94 3.89 135.94 3.91 135.93 3.9"/><polygon points="134.66 3.38 134.67 3.37 134.68 3.38 134.67 3.38 134.66 3.38"/><polygon points="135.79 3.87 135.8 3.86 135.81 3.85 135.8 3.88 135.79 3.87"/><polygon points="134.34 3.27 134.34 3.26 134.36 3.27 134.35 3.27 134.34 3.27"/><polygon points="134.93 3.51 134.94 3.5 134.95 3.5 134.94 3.52 134.93 3.51"/><polygon points="134.98 3.5 134.99 3.5 135 3.51 134.98 3.52 134.98 3.5"/><polygon points="134.75 3.41 134.75 3.39 134.77 3.42 134.75 3.42 134.75 3.41"/><polygon points="135.26 3.7 135.26 3.69 135.28 3.69 135.28 3.72 135.26 3.7"/><polygon points="134.29 3.29 134.32 3.28 134.34 3.29 134.31 3.3 134.29 3.29"/><polygon points="134.77 3.42 134.83 3.44 134.83 3.45 134.81 3.45 134.77 3.42"/><polygon points="134.86 3.47 134.9 3.46 134.93 3.5 134.9 3.51 134.86 3.47"/><polygon points="138.16 4.25 138.2 4.24 138.24 4.27 138.2 4.28 138.16 4.25"/><polygon points="135.18 3.79 135.2 3.74 135.23 3.73 135.23 3.78 135.18 3.79"/><polygon points="134.1 3.21 134.15 3.21 134.19 3.25 134.13 3.25 134.1 3.21"/><polygon points="133.49 2.98 133.56 2.96 133.6 3 133.56 3.02 133.49 2.98"/><rect x="131.41" y="2.66"/><rect x="52.86" y="21.53" height="0.01" transform="translate(78.26 24.69) rotate(-45)"/><rect x="53.68" y="21.8" width="0.01" height="0.01" transform="translate(88.11 41.01) rotate(-63.35)"/><polygon points="131.77 2.79 131.77 2.78 131.78 2.79 131.77 2.79"/><rect x="53.48" y="21.65" height="0.01" transform="matrix(0.6, -0.8, 0.8, 0.6, 81.99, 32.32)"/><polygon points="131.68 2.77 131.69 2.76 131.7 2.77 131.69 2.77 131.68 2.77"/><polygon points="131.59 2.74 131.59 2.73 131.6 2.74 131.6 2.75 131.59 2.74"/><polygon points="132.1 2.92 132.11 2.92 132.13 2.92 132.12 2.93 132.1 2.92"/><polygon points="128.85 3 128.85 2.99 128.86 2.99 128.86 3 128.85 3"/><polygon points="131.81 2.78 131.81 2.75 131.82 2.76 131.82 2.79 131.81 2.78"/><polygon points="131.88 2.8 131.89 2.79 131.91 2.81 131.9 2.82 131.88 2.8"/><polygon points="131.64 2.74 131.64 2.73 131.67 2.72 131.66 2.75 131.64 2.74"/><polygon points="131.84 2.8 131.87 2.78 131.88 2.8 131.85 2.81 131.84 2.8"/><polygon points="129.19 2.39 129.23 2.4 129.23 2.44 129.2 2.43 129.19 2.39"/><polygon points="130.8 2.56 130.83 2.54 130.87 2.57 130.83 2.58 130.8 2.56"/><polygon points="124.78 2.14 124.78 2.14 124.78 2.13 124.78 2.14 124.78 2.14"/><rect x="126.46" y="2.22" width="0.01" height="0.01"/><polygon points="126.23 2.19 126.23 2.18 126.25 2.18 126.24 2.19 126.23 2.19"/><polygon points="126.51 2.25 126.53 2.25 126.54 2.27 126.53 2.27 126.51 2.25"/><polygon points="126.34 2.2 126.37 2.19 126.38 2.19 126.37 2.21 126.34 2.2"/><polygon points="219.38 11.25 219.4 11.23 219.42 11.24 219.41 11.26 219.38 11.25"/><polygon points="222.33 12.93 222.35 12.89 222.37 12.89 222.37 12.91 222.33 12.93"/><polygon points="222.6 13 222.61 12.97 222.65 12.95 222.61 13 222.6 13"/><polygon points="220.61 11.8 220.65 11.75 220.66 11.74 220.65 11.78 220.61 11.8"/><polygon points="222.14 12.83 222.14 12.82 222.19 12.79 222.18 12.84 222.14 12.83"/><polygon points="222.28 12.88 222.29 12.85 222.31 12.84 222.31 12.88 222.28 12.88"/><polygon points="223.66 13.68 223.75 13.63 223.78 13.62 223.69 13.68 223.66 13.68"/><polygon points="223.84 13.61 223.9 13.58 223.94 13.59 223.85 13.62 223.84 13.61"/><polygon points="219.4 11.39 219.41 11.37 219.47 11.38 219.46 11.4 219.4 11.39"/><polygon points="224.08 13.9 224.11 13.86 224.16 13.84 224.1 13.9 224.08 13.9"/><polygon points="224.99 14.06 225.03 14.01 225.06 14.01 225.05 14.05 224.99 14.06"/><polygon points="220.63 11.65 220.67 11.6 220.7 11.61 220.69 11.66 220.63 11.65"/><polygon points="223.35 13.27 223.39 13.21 223.44 13.22 223.44 13.29 223.35 13.27"/><polygon points="223.09 13.25 223.24 13.12 223.31 13.15 223.31 13.2 223.09 13.25"/><polygon points="222.22 13.2 222.41 13.1 222.53 13.16 222.41 13.3 222.22 13.2"/><polygon points="226.85 15.2 226.91 15.05 227.3 15 227.15 15.16 226.85 15.2"/><polygon points="223.16 13.75 223.3 13.47 223.65 13.55 223.3 13.77 223.16 13.75"/><polygon points="221.1 12.31 221.96 12.6 222.05 13.02 221.38 13.04 221.1 12.31"/><polygon points="181.46 6.61 181.49 6.62 181.5 6.67 181.48 6.67 181.46 6.61"/><polygon points="178.84 5.08 178.84 5.04 178.9 5 178.9 5.03 178.84 5.08"/><polygon points="174.46 4.54 174.49 4.52 174.57 4.57 174.48 4.59 174.46 4.54"/><polygon points="184.06 6.01 184.28 6.03 184.31 6.16 184.13 6.22 184.06 6.01"/><polygon points="165.28 3.93 165.36 3.83 165.49 3.87 165.38 3.96 165.28 3.93"/><rect x="24.59" y="21.3" width="0.01" height="0.01" transform="translate(74.61 18.9) rotate(-71.57)"/><polygon points="103.1 2.3 103.11 2.29 103.12 2.3 103.11 2.31 103.1 2.3"/><polygon points="102.79 2.3 102.8 2.29 102.83 2.3 102.79 2.31 102.79 2.3"/><polygon points="101.54 2.27 101.64 2.25 101.67 2.31 101.6 2.3 101.54 2.27"/><polygon points="102.91 2.29 103.01 2.27 103.06 2.3 102.99 2.34 102.91 2.29"/><rect x="39.86" y="22.2" width="0.01" height="0.01" transform="translate(72.27 1.31) rotate(-26.74)"/><polygon points="118 3.23 118 3.21 118.02 3.22 118 3.23 118 3.23"/><polygon points="117.26 3.35 117.26 3.35 117.28 3.34 117.27 3.36 117.26 3.35"/><polygon points="117.18 3.38 117.19 3.36 117.19 3.36 117.19 3.38 117.18 3.38"/><polygon points="117.15 3.39 117.16 3.39 117.18 3.4 117.16 3.41 117.15 3.39"/><polygon points="117.11 3.5 117.13 3.5 117.14 3.51 117.11 3.52 117.11 3.5"/><polygon points="117.79 3.29 117.8 3.27 117.83 3.26 117.82 3.28 117.79 3.29"/><polygon points="43.42 12.64 44.4 12.24 45.13 13.12 44.6 13.5 43.42 12.64"/><polygon points="97.1 14.12 97.13 14.08 97.14 14.07 97.13 14.12 97.1 14.12"/><polygon points="179.69 8.45 179.75 8.39 179.86 8.42 179.74 8.52 179.69 8.45"/><polygon points="177 8 177.08 7.97 177.19 8.07 177.16 8.07 177 8"/><polygon points="175.86 7.6 175.93 7.5 176.1 7.65 176.07 7.67 175.86 7.6"/></svg>