<svg id="Layer_1" data-name="Layer 1" xmlns="http://www.w3.org/2000/svg" viewBox="0 0 204.26 256"><title>UT</title><polygon points="64.07 51.78 63.24 50.56 64.23 50.26 64.58 51.36 64.07 51.78"/><polygon points="77.91 58.6 75.03 53.99 75.1 48.45 78.22 53.46 77.91 58.6"/><polygon points="72.66 44.96 72.44 45.1 69.77 43.06 71.48 42.66 72.66 44.96"/><path d="M-31.45-77.61l99.43,1,.28,50.91L145.52-27l5.74,203.67L49.13,178-53,176.4-45.65-78l14.2.39M-.95-58.44-7.38-57-5.61-55-7.39-52.8l3,9.73L-7.3-40.53l1.8.59,1.79-2.84,3,2.94L2-35.73l.66,9.48,4.62,3.32,2.89,5.7,2.79-5.89L16-10.71l2.34.7,6.1-4.26,2.49-5.18,7.34-4.31-6.65-5.1L21.83-39.27l-2.62-.34L22-43.5l5.95.62,1.63-2.88-8.17.35-.58-3.2-4.07-.53,1.61,11.49-3.22,1.27L12-47.21,7.33-48.1,4.07-51.55,5-58.48,2.26-60.73Z" transform="translate(53 78)"/></svg>