<svg id="Layer_1" data-name="Layer 1" xmlns="http://www.w3.org/2000/svg" viewBox="0 0 256 110.11"><title>VA</title><polygon points="237.16 107.75 237.35 108.75 236.31 108.77 236.12 108.32 237.16 107.75"/><polygon points="239.75 82.85 238.74 82.73 240.34 80.06 240.23 82.27 239.75 82.85"/><polygon points="242.51 76.65 242.34 76.19 243.66 73.74 243.52 74.62 242.51 76.65"/><polygon points="250.5 56.63 245 71.26 243.83 72.68 242.54 70.31 241.33 71.72 242.81 72.47 239.45 74.33 238.18 84.84 237.18 82.98 235.49 86.41 233.46 79.74 235.84 68.51 238.88 66.07 239.68 60.85 243.43 59.45 240.88 56.91 244.47 53.54 251.79 52.33 250.5 56.63"/><polygon points="253.43 57.27 252.61 58.05 251.64 58.15 256 51.62 253.43 57.27"/><polygon points="177.4 11.13 180.58 4.23 185.79 5.4 188.84 8.06 187.71 12.03 194.35 14.84 201.08 20.95 201.35 26.63 198.14 27.8 197.85 30.32 195.81 29.65 193.69 38.95 192.25 38.19 194.32 40.87 192.68 41.29 201.77 39.2 202.9 41.25 201.43 42.05 204.73 46.45 210.78 49.13 215.11 48.58 217.13 53.24 226.07 57.7 225.73 60.72 223.46 59.79 224.25 67.77 219.24 65.2 218.2 67.19 204.95 50.88 201.08 48.19 198.94 48.22 204.54 51.41 217.13 68 224.93 70.35 221.67 71.81 226.23 72.93 225.79 79.94 221.09 75.25 220.59 79.8 222.53 81.09 220 81.91 209.96 71.96 209.47 73.15 217.75 82.19 222.17 83.2 225.11 87.02 223.71 88.14 225.78 88.24 225.08 91.44 221.07 92.95 214.65 83.82 211.33 84.76 207.71 80.06 205.6 83.05 203.37 80.14 201.82 81.53 195.87 79.23 195.17 80.52 201.48 82.32 202.97 81.2 204.34 83.28 211.57 86.23 213.41 84.9 214.37 90.34 219.66 93.63 218.26 97.31 222.61 95.79 225.37 97.66 225.06 93.57 234.35 94.87 239.07 108.71 235.68 102.33 235.58 108.78 233.16 107.33 233.6 108.82 171.69 110.11 109.35 109.81 0 103.34 16.75 98.57 18.95 94.94 24.93 93.36 31.05 84.67 41.29 79.75 53.36 70.36 54.27 76.77 64.45 83.42 71.29 78.72 75.41 82.27 85.85 79.47 87.05 75.74 90.1 77.45 96.71 74.32 98.96 75.84 103.94 72.75 105.98 68.69 104.22 66.25 119.31 44.17 123.82 32.3 126.84 33.25 127.99 36.46 134.61 38.53 143.23 22.83 147.1 24.9 160.38 10.93 162.85 0 177.4 11.13"/></svg>