<svg id="Layer_1" data-name="Layer 1" xmlns="http://www.w3.org/2000/svg" viewBox="0 0 237.6 256"><title>WI</title><polygon points="230.22 98.09 232.7 98.01 232.85 100.69 229.88 101 230.63 106.13 228.44 105.83 230.45 108.05 225.36 115.44 225.88 118.21 219.59 124.93 217.01 121.52 217.1 116.93 221.05 111.83 222.46 105.45 226.73 103.56 230.22 98.09"/><polygon points="234.38 90.64 237.6 91.57 237.28 95.13 232.93 94.91 234.38 90.64"/><polygon points="85.07 16.81 82.79 17.74 90.4 11.5 90.95 13.01 85.07 16.81"/><polygon points="92.27 8.19 92.25 9.64 87.97 8.6 93.09 6.5 92.27 8.19"/><polygon points="81.43 7.43 84.2 10.21 76.53 26.39 83.31 24.79 84.28 21.04 91.45 26.55 97.64 27.59 98.28 29.9 104.54 32.13 108.85 41.55 147.74 52.15 158.81 58.31 170.84 58.69 184.54 62.22 188.34 66.64 187.48 70.78 195.71 73.06 199.7 76.97 199.93 87.45 197.04 94.39 205.43 94.04 203.2 104.6 208.66 109.33 206.9 115.64 198.93 119.85 191.78 139.18 193.75 141.1 196.66 140.6 203.16 134.13 209.48 123.26 214.98 121.39 219.99 125.86 212.06 152.98 214.18 159.94 208.82 165.64 205.72 174.97 206.91 187.6 199.17 212.62 199.81 226.31 205.49 239.22 204.59 255.97 86.84 256 84.34 247.93 71.66 244.36 68.86 240.09 65.52 219.38 68.98 210.63 64.02 207.44 62.5 202.38 62.95 186.84 60.99 176.79 56.27 171.15 46.78 168.15 40.16 162.72 35.03 152.9 29.05 147.08 21.75 144.98 17.61 138.76 10.03 136.93 0.92 128.22 3.7 118.91 2.25 110.32 4.43 107.69 4.36 98.88 8.43 91.01 5.22 83.45 0.06 82.32 0 75.16 7.74 63.7 18.7 57.35 21.25 57.73 24.1 54.68 25.16 22.22 28.01 22.26 32.18 16.52 37.76 21.01 44.35 20.31 59.53 16.12 66.4 10.72 70.09 12.18 76.01 7.29 79.81 6.01 81.43 7.43"/><polygon points="86.18 8.75 83.86 7.62 84.66 6.06 86.5 7.8 86.18 8.75"/><polygon points="76.98 5.92 75.75 5.08 77.31 3.68 77.85 4.46 76.98 5.92"/><polygon points="96.86 3.69 95.22 4.44 97.83 0 97.73 2.68 96.86 3.69"/></svg>