<svg id="Layer_1" data-name="Layer 1" xmlns="http://www.w3.org/2000/svg" viewBox="0 0 256 228.25"><title>WV</title><polygon points="165.84 61.92 165.42 96.22 175.53 89.64 185.19 78.83 188.02 77.8 192.68 79.67 200.36 72 201.84 67.43 203.96 69.16 203.31 71.29 206.81 73.43 217.86 74.15 219.69 72.26 218.56 70.63 221.05 70.09 219.6 68.1 227.52 67.25 232.37 62.59 243.57 69.26 249.85 68.47 250.38 70.5 248.18 71.68 249.3 74.89 250.37 73.06 251.35 76.09 253.93 75.72 252.15 79.33 255.21 80.94 256 87.06 251 99.6 225.51 79.57 221.15 91.75 220.67 99.21 212.44 110.45 207.66 114.76 204.06 114.5 197.65 123.99 190.8 120.43 175.98 148.17 164.31 144.65 162.23 139.04 156.91 137.44 149.22 158.35 142.78 164.64 138.33 176.44 127.32 188.81 123.13 197.41 126.26 201.68 121.92 205.49 122.52 209.13 114.07 214.36 110.09 211.73 98.55 217.35 93.16 214.41 91.12 220.97 72.83 226.09 66.2 219.89 54.87 228.25 49.73 227.73 40.36 222.17 32.9 210.23 34.34 206.05 25.95 203.69 16.88 195.44 7.37 178.23 8.09 175.29 0 163.56 3.34 157.36 2.81 145.9 16.36 144.73 19.51 135.18 24.77 133.77 23.48 122.13 31.73 107.89 34.65 106.74 37.99 108.91 39.65 116.71 43.81 111.47 46.91 112.7 44.33 103.13 47.69 101.52 47.85 96.7 51.7 90.58 56.96 90.41 58.44 85.86 63.25 81.81 65.44 81.88 68.05 85.61 75.44 82.6 93.85 67.57 95.98 61.5 94.21 58.09 98.12 51.66 97.9 47.9 100.13 47.64 101.47 37.62 108.56 21.5 107.17 17.29 108.63 11.64 105.45 2.44 112.9 0 112.25 61.64 165.84 61.92"/></svg>